<?xml version="1.0" encoding="UTF-8"?>
<svg id="Layer_2" data-name="Layer 2" xmlns="http://www.w3.org/2000/svg" viewBox="0 0 534.46 497.35">
  <defs>
    <style>
      .cls-1 {
        fill: #000;
        stroke-width: 0px;
      }
    </style>
  </defs>
  <g id="_ëîé_1" data-name="‘ëîé_1">
    <g>
      <path class="cls-1" d="M68.63,354.47c-1.4-2.85-4.23-4.62-7.41-4.62-1.26,0-2.47.28-3.62.84-4.08,2-5.78,6.94-3.78,11.02,5.44,11.12,11.75,21.95,18.74,32.18,1.54,2.25,4.08,3.59,6.81,3.59,1.67,0,3.27-.5,4.64-1.44,1.82-1.24,3.04-3.12,3.45-5.28.41-2.16-.05-4.36-1.29-6.17-6.56-9.6-12.46-19.74-17.54-30.13Z"/>
      <path class="cls-1" d="M207.88,477.36c-36.47-12.46-69.91-33.87-96.71-61.92-1.55-1.62-3.72-2.55-5.96-2.55s-4.15.81-5.69,2.28c-3.29,3.14-3.4,8.36-.27,11.65,28.62,29.96,64.34,52.83,103.31,66.14.87.29,1.76.44,2.66.44,3.52,0,6.66-2.24,7.8-5.58.71-2.08.57-4.32-.4-6.29-.97-1.98-2.65-3.46-4.74-4.17Z"/>
      <path class="cls-1" d="M399.93,35.8c26.97,14.52,50.7,33.8,70.52,57.29,1.57,1.86,3.87,2.92,6.3,2.92,1.94,0,3.83-.69,5.31-1.94,1.68-1.42,2.71-3.41,2.9-5.6.19-2.19-.49-4.33-1.91-6.01-21.16-25.08-46.5-45.66-75.31-61.17-1.2-.64-2.55-.98-3.9-.98-3.04,0-5.82,1.66-7.26,4.33-2.15,4-.65,9.01,3.35,11.16Z"/>
      <path class="cls-1" d="M494.4,276.47c-.46-.08-.92-.12-1.39-.12-4.03,0-7.45,2.88-8.13,6.85-16.19,94.37-95.76,163.57-190.86,167.36v-10.93c0-4.54-3.7-8.24-8.24-8.24s-8.24,3.7-8.24,8.24v10.92c-104.87-4.24-189.4-88.77-193.63-193.64h10.91c4.54,0,8.24-3.7,8.24-8.24s-3.7-8.24-8.24-8.24h-49.48c-4.54,0-8.24,3.7-8.24,8.24s3.7,8.24,8.24,8.24h22.08c4.25,113.96,96.16,205.88,210.12,210.13v22.06c0,4.54,3.7,8.24,8.24,8.24s8.24-3.7,8.24-8.24v-22.06c103.15-3.8,189.55-78.76,207.11-181.07.37-2.17-.12-4.35-1.39-6.15-1.27-1.8-3.17-2.99-5.34-3.36Z"/>
      <path class="cls-1" d="M88.82,174.41c1.02.43,2.1.65,3.2.65,3.32,0,6.3-1.98,7.59-5.04,30.6-72.43,99.84-120.09,177.94-123.24v10.94c0,4.54,3.7,8.24,8.24,8.24s8.24-3.7,8.24-8.24v-10.93c95.1,3.79,174.67,73,190.86,167.36.68,3.97,4.09,6.85,8.11,6.85h0c.48,0,.95-.04,1.4-.12,2.17-.37,4.07-1.57,5.34-3.36,1.27-1.8,1.77-3.98,1.39-6.15-17.55-102.3-103.96-177.27-207.11-181.07V8.24c0-4.54-3.7-8.24-8.24-8.24s-8.24,3.7-8.24,8.24v22.04c-84.73,3.16-159.94,54.78-193.12,133.32-.86,2.03-.87,4.27-.04,6.31.83,2.04,2.4,3.63,4.43,4.49Z"/>
      <path class="cls-1" d="M526.22,240.43h-49.48c-4.54,0-8.24,3.7-8.24,8.24s3.7,8.24,8.24,8.24h49.48c4.54,0,8.24-3.7,8.24-8.24s-3.7-8.24-8.24-8.24Z"/>
      <path class="cls-1" d="M83.72,203.83c0-4.54-3.7-8.24-8.24-8.24H8.24c-4.54,0-8.24,3.7-8.24,8.24s3.7,8.24,8.24,8.24h67.24c4.54,0,8.24-3.7,8.24-8.24Z"/>
      <path class="cls-1" d="M409.33,192.36c-.54-2.19-1.98-4.09-3.94-5.2-31.31-17.7-65.37-17.96-98.32-18.21-32.26-.24-62.73-.47-90.33-16.07-1.24-.7-2.64-1.07-4.06-1.07-1.2,0-2.41.27-3.5.78-2.41,1.13-4.13,3.37-4.61,5.99l-40.17,221.05c-.81,4.47,2.17,8.77,6.65,9.58.49.09.98.13,1.47.13h0c3.98,0,7.39-2.85,8.1-6.77l38.2-210.23c28.45,12.63,58.77,12.86,88.12,13.08,29.32.22,57.07.43,82.55,12.1-9.91,15.56-20.2,32.25-31.4,50.92-.99,1.65-1.37,3.61-1.07,5.51,3.38,21.62,6.41,42.31,9.25,63.09-27.28-10.94-56.12-11.16-84.07-11.37-19.62-.15-39.91-.3-58.72-4.35-.57-.12-1.16-.19-1.74-.19-3.85,0-7.24,2.74-8.05,6.51-.46,2.15-.06,4.36,1.13,6.21,1.19,1.85,3.04,3.12,5.19,3.58,20.46,4.4,41.6,4.56,62.08,4.72,32.26.24,62.73.47,90.32,16.07,1.24.7,2.64,1.07,4.06,1.07,1.65,0,3.24-.49,4.61-1.41,2.61-1.76,3.97-4.79,3.56-7.91-3.31-25.12-6.87-49.87-10.88-75.62,12.31-20.49,23.6-38.67,34.49-55.57,1.22-1.9,1.61-4.24,1.07-6.43Z"/>
    </g>
  </g>
</svg>