<?xml version="1.0" encoding="UTF-8"?>
<svg id="Layer_2" data-name="Layer 2" xmlns="http://www.w3.org/2000/svg" viewBox="0 0 556.83 515.98">
  <defs>
    <style>
      .cls-1 {
        fill: #000;
        stroke-width: 0px;
      }
    </style>
  </defs>
  <g id="_ëîé_1" data-name="‘ëîé_1">
    <g>
      <path class="cls-1" d="M248.94,70.99c-.56-.56-1.32-.88-2.12-.88h0c-.79,0-1.55.31-2.12.87-12.92,12.86-23.37,25.34-35.09,40.11-1.03,1.3-.81,3.18.49,4.21l7.83,6.22c.53.42,1.19.65,1.86.65.11,0,.23,0,.34-.02.79-.09,1.51-.49,2.01-1.12,11.37-14.33,21.48-26.41,33.84-38.72,1.17-1.17,1.18-3.07,0-4.24l-7.06-7.09Z"/>
      <path class="cls-1" d="M474.33,164.5c-9.31-4.35-19.37-8.45-29.94-12.19,1.46-8.34,2.59-16.55,3.37-24.45,5.78-59.05-8.14-101.35-39.19-119.11-10.16-5.81-21.74-8.76-34.4-8.76-8.42,0-17.44,1.31-26.83,3.89-21.79,5.99-45.15,18.65-69.45,37.62-.63.49-1.03,1.21-1.13,2-.1.79.12,1.58.61,2.21l6.15,7.88c.59.76,1.47,1.15,2.37,1.15.65,0,1.3-.21,1.84-.64,31.87-24.88,61.75-38.04,86.42-38.04,9.96,0,18.87,2.21,26.48,6.56,25.25,14.44,36.34,51.26,31.21,103.66-.66,6.71-1.6,13.73-2.81,20.92-27.05-8.33-56.7-14.39-88.22-18.06-25.03-33.16-51.48-60.39-78.63-80.96-32-24.25-62.73-37.06-88.88-37.06-12.14,0-23.28,2.73-33.13,8.11-31.39,17.16-46.11,59.19-41.46,118.34.38,4.82.9,9.85,1.55,14.97-5.19,1.93-10.19,3.92-14.9,5.95C30.87,181.99.56,214.62,0,250.38c-.41,26.72,15.92,52.43,47.23,74.35,13.71,9.6,30.07,18.33,48.67,25.97-1.3,7.68-2.31,15.18-3.01,22.34-5.78,59.05,8.14,101.35,39.19,119.11,10.09,5.77,21.67,8.69,34.42,8.69,23.48,0,50.96-10.11,79.47-29.25.66-.44,1.12-1.13,1.27-1.91.15-.78,0-1.59-.45-2.25l-5.57-8.3c-.58-.86-1.53-1.33-2.49-1.33-.57,0-1.16.17-1.67.51-25.89,17.37-50.25,26.56-70.45,26.56-9.97,0-18.91-2.22-26.58-6.61-25.25-14.45-36.34-51.26-31.21-103.66.57-5.83,1.35-11.89,2.34-18.06,16.76,5.98,34.96,11.11,54.16,15.25.21.05.43.07.63.07,1.38,0,2.63-.96,2.93-2.37l2.11-9.78c.17-.78.02-1.59-.41-2.26-.43-.67-1.11-1.14-1.89-1.31-19.49-4.2-37.85-9.43-54.61-15.55,4.53-21.83,11.37-44.67,20.35-68.02,7.59,17.81,16.25,35.63,25.79,53.08,35.19,64.35,79.63,118.78,125.14,153.26,32,24.25,62.74,37.06,88.88,37.06h0c12.14,0,23.28-2.73,33.13-8.11,16.95-9.27,29.03-25.64,35.92-48.67,6.35-21.24,7.98-47.23,4.86-77.25-.16-1.54-1.46-2.69-2.98-2.69-.1,0-.21,0-.31.02l-9.95,1.04c-.79.08-1.52.48-2.02,1.09-.5.62-.74,1.41-.65,2.2,5.79,55.58-6.07,95.75-32.53,110.22-7.5,4.1-16.1,6.18-25.58,6.18-22.52,0-49.86-11.7-79.09-33.84-43.75-33.14-86.64-85.77-120.76-148.18-11.96-21.88-22.45-44.25-31.18-66.53,8.34-19.2,18.03-38.47,28.8-57.31,6.27-10.96,9.97-17.26,16.77-27.58.91-1.38.53-3.24-.85-4.16l-8.35-5.5c-.49-.33-1.07-.5-1.65-.5-.2,0-.4.02-.6.06-.78.16-1.46.62-1.9,1.29-7.07,10.72-10.87,17.19-17.31,28.44-8.21,14.36-15.86,29.07-22.78,43.83-7.87-23.01-13.64-45.41-17.19-66.72,44.14-14.48,96.92-22.13,152.82-22.13,3.09,0,6.22.02,9.32.07,17.49.27,34.98,1.3,51.99,3.06,14.76,20.09,28.59,41.9,41.13,64.83,4.04,7.38,7.95,14.91,11.64,22.39.52,1.06,1.59,1.67,2.69,1.67.45,0,.9-.1,1.33-.31l8.97-4.42c.71-.35,1.26-.97,1.51-1.73.26-.75.2-1.58-.15-2.29-3.78-7.67-7.8-15.4-11.95-22.99-10.36-18.95-21.66-37.25-33.63-54.5,25.73,3.7,50,9.09,72.3,16.06-9.89,45.9-29.64,95.54-57.21,143.73-11.98,20.95-25.17,41.05-39.2,59.77-14.3,1.06-28.95,1.6-43.56,1.6-3.1,0-6.25-.02-9.35-.07-15.38-.24-30.79-1.06-45.79-2.46-.09,0-.19-.01-.28-.01-.7,0-1.38.24-1.92.69-.61.51-1,1.24-1.07,2.03l-.93,9.96c-.15,1.65,1.06,3.11,2.71,3.27,15.41,1.44,31.24,2.29,47.03,2.53,3.23.05,6.46.07,9.59.07,10.13,0,20.33-.26,30.42-.76-12.71,15.59-25.88,29.85-39.21,42.44-1.2,1.14-1.26,3.04-.12,4.24l6.87,7.27c.55.58,1.3.92,2.1.94.03,0,.06,0,.08,0,.76,0,1.5-.29,2.06-.82,17.12-16.18,33.87-34.86,49.8-55.54,50.19-4.37,96.31-15.12,133.44-31.12,54.49-23.47,84.8-56.09,85.35-91.86.55-35.77-28.75-69.3-82.49-94.43ZM125.81,251.16c-12.03,28.61-21.04,56.67-26.82,83.51-16.24-6.88-30.55-14.62-42.58-23.04-26.76-18.73-40.73-39.83-40.41-61,.45-29.09,27.33-56.58,75.68-77.41,3.55-1.53,7.25-3.03,11.01-4.48,4.6,26.29,12.36,53.99,23.11,82.41ZM280.4,125.25c-3.18-.05-6.4-.07-9.57-.07-56.37,0-109.9,7.62-155.1,22.06-.44-3.73-.79-7.38-1.07-10.89-4.12-52.49,7.66-89.09,33.19-103.04,7.5-4.1,16.1-6.18,25.58-6.18,22.52,0,49.86,11.7,79.09,33.84,22.66,17.17,44.97,39.38,66.38,66.09-12.73-1-25.64-1.6-38.49-1.8ZM465.14,336.1c-32,13.78-71.38,23.58-114.27,28.45,11.24-15.82,21.92-32.56,31.8-49.83,27.99-48.93,48.2-99.52,58.57-146.55,9.23,3.34,18.07,6.97,26.31,10.83,47.7,22.3,73.72,50.6,73.27,79.7s-27.33,56.58-75.68,77.41Z"/>
      <path class="cls-1" d="M423.72,280.37c-.45-1.21-1.59-1.95-2.81-1.95-.35,0-.7.06-1.05.19l-9.37,3.49c-1.55.58-2.34,2.31-1.76,3.86,7.53,20.22,11.96,37.25,15.64,52.65.18.77.67,1.44,1.35,1.86.48.29,1.02.44,1.57.44.23,0,.47-.03.7-.08l9.73-2.32c.77-.18,1.44-.67,1.86-1.35s.55-1.49.36-2.27c-3.79-15.9-8.38-33.51-16.21-54.52Z"/>
      <path class="cls-1" d="M264.91,270.36l10.64,31.32c.41,1.22,1.56,2.04,2.84,2.04h14.63c.97,0,1.88-.47,2.44-1.25.56-.79.71-1.8.4-2.71l-36.19-106.05c-.41-1.21-1.56-2.03-2.84-2.03h-16.52c-1.29,0-2.43.82-2.84,2.04l-36.03,106.05c-.31.92-.16,1.93.4,2.71s1.47,1.25,2.44,1.25h14.16c1.29,0,2.44-.83,2.85-2.06l10.33-31.3h33.29ZM245.53,226.89c.89-2.81,1.77-5.75,2.65-8.92.83,2.94,1.74,5.97,2.82,9.14l9.04,26.56h-23.57l9.06-26.78Z"/>
      <rect class="cls-1" x="305.59" y="191.67" width="19.69" height="112.05" rx="3" ry="3"/>
    </g>
  </g>
</svg>