<?xml version="1.0" encoding="UTF-8"?>
<svg id="Layer_2" data-name="Layer 2" xmlns="http://www.w3.org/2000/svg" viewBox="0 0 395.34 535.79">
  <defs>
    <style>
      .cls-1 {
        fill: #000;
        stroke-width: 0px;
      }
    </style>
  </defs>
  <g id="_ëîé_1" data-name="‘ëîé_1">
    <g>
      <path class="cls-1" d="M30.79,208.38c8.16,5.71,17.83,10.96,28.78,15.61-.64,4.03-1.15,8-1.52,11.83-3.73,38.14,5.5,65.59,25.98,77.31,6.76,3.86,14.49,5.82,22.97,5.82,15.28,0,33.03-6.49,51.33-18.78,1.38-.92,1.74-2.79.82-4.16l-5.57-8.3c-.44-.66-1.13-1.12-1.91-1.27-.19-.04-.39-.06-.58-.06-.59,0-1.17.17-1.67.51-15.69,10.53-30.32,16.09-42.31,16.09-5.71,0-10.8-1.26-15.14-3.74-14.48-8.28-21.04-30.83-18-61.86.24-2.43.54-4.96.91-7.56,9.67,3.29,20,6.12,30.77,8.44.21.05.42.07.63.07,1.38,0,2.63-.96,2.93-2.37l2.05-9.49c20.16,32.46,43.93,59.79,68.2,78.17,20.52,15.54,40.35,23.76,57.36,23.76,8.08,0,15.52-1.83,22.12-5.43,21.67-11.85,31.26-40.83,27.02-81.61-.16-1.54-1.46-2.69-2.98-2.69-.1,0-.21,0-.31.02l-9.95,1.04c-.79.08-1.52.48-2.02,1.09-.5.62-.74,1.41-.65,2.2,3.48,33.46-3.36,57.48-18.78,65.92-4.11,2.25-8.93,3.39-14.32,3.39-13.64,0-30.17-7.07-47.81-20.43-27-20.46-53.5-53-74.62-91.62-7.21-13.18-13.55-26.65-18.86-40.06,5.06-11.53,10.89-23.09,17.35-34.38,3.88-6.78,6.17-10.68,10.38-17.07.44-.67.59-1.48.43-2.25s-.62-1.46-1.29-1.9c0,0-8.42-5.55-8.46-5.57,18.29-3.15,37.95-4.78,58.27-4.78,1.88,0,3.77.01,5.66.04,10.4.16,20.78.75,30.89,1.76,8.85,12.15,17.16,25.3,24.7,39.1,2.5,4.57,4.92,9.23,7.21,13.88.52,1.06,1.59,1.67,2.69,1.67.45,0,.9-.1,1.33-.31l8.6-4.24c-6.1,15.63-13.7,31.47-22.62,47.06-7.19,12.57-15.07,24.65-23.46,35.93-8.46.6-17.14.9-25.82.9-1.87,0-3.74-.01-5.62-.04-9.52-.15-19.07-.66-28.38-1.53-.09,0-.19-.01-.28-.01-1.53,0-2.84,1.17-2.98,2.72l-.93,9.96c-.07.79.17,1.58.68,2.19.51.61,1.24,1,2.03,1.07,9.73.91,19.69,1.44,29.61,1.59,2.02.03,4.03.05,6.04.05,4.01,0,8.15-.07,12.37-.21-6.53,7.66-13.21,14.73-19.92,21.06-1.2,1.14-1.26,3.04-.12,4.24l6.87,7.27c.55.58,1.3.92,2.1.94.03,0,.06,0,.08,0,.77,0,1.5-.29,2.06-.82,10.52-9.94,20.82-21.38,30.63-34.01,31.17-2.83,59.83-9.58,82.98-19.55,35.19-15.16,54.78-36.5,55.14-60.1.36-23.6-18.55-45.53-53.27-61.76-5.2-2.43-10.78-4.74-16.6-6.87.73-4.46,1.31-8.83,1.72-13,3.73-38.14-5.5-65.59-25.98-77.31-6.86-3.92-14.65-5.91-23.15-5.91-18.15,0-39.53,9.2-61.83,26.62-1.31,1.02-1.54,2.9-.52,4.21l6.15,7.88c.49.63,1.21,1.03,2,1.13.12.01.24.02.37.02.67,0,1.32-.22,1.85-.64,19.39-15.14,37.41-23.14,52.1-23.14,5.7,0,10.78,1.25,15.09,3.72,14.48,8.28,21.04,30.83,18,61.86-.3,3.1-.7,6.28-1.19,9.51-15.83-4.65-32.99-8.09-51.08-10.26-15.58-20.48-32.04-37.34-48.93-50.14-20.51-15.54-40.35-23.76-57.36-23.76-8.08,0-15.52,1.83-22.12,5.43-20.71,11.32-30.46,38.6-27.46,76.8.18,2.3.42,4.7.7,7.14-2.48.95-4.91,1.94-7.23,2.94C19.95,114.48.37,135.83,0,159.43c-.27,17.74,10.37,34.66,30.79,48.96ZM280.83,112.12c4.55,1.73,8.91,3.56,13,5.48,28.25,13.21,44.3,30.35,44.04,47.02-.26,16.68-16.83,33.31-45.47,45.65-18.01,7.76-39.98,13.5-63.89,16.71,5.68-8.32,11.1-16.98,16.16-25.82,3.83-6.69,7.41-13.44,10.77-20.21-.15.57-.13,1.2.09,1.8,4.64,12.47,7.39,23.01,9.66,32.54.18.77.67,1.44,1.35,1.86.48.29,1.02.44,1.57.44.23,0,.47-.03.7-.08l9.73-2.32c1.61-.38,2.61-2,2.22-3.61-2.39-10.02-5.28-21.13-10.23-34.41-.28-.75-.84-1.35-1.56-1.68-.4-.18-.82-.27-1.25-.27-.35,0-.71.06-1.05.19l-9.37,3.49c-.54.2-.98.55-1.31.97,11.23-22.83,19.69-45.86,24.84-67.73ZM265.61,106.96c-2.58,11.32-6.12,23.01-10.54,34.84-2.36-4.79-4.87-9.61-7.46-14.33-5.38-9.84-11.18-19.43-17.28-28.59,12.42,2.05,24.25,4.76,35.28,8.07ZM100.46,207.94c2.72,4.98,5.53,9.87,8.42,14.65-11.02-2.38-21.48-5.3-31.12-8.69,2.31-10.52,5.48-21.43,9.45-32.55,4.03,8.95,8.47,17.86,13.24,26.6ZM110.01,99.95c-4.46,6.76-6.85,10.84-10.91,17.93-3.91,6.84-7.63,13.83-11.1,20.86-3.41-10.83-6.04-21.43-7.87-31.61,9.44-2.97,19.5-5.45,30.04-7.41-.06.07-.11.15-.17.23ZM96.81,26.49c4.11-2.25,8.93-3.39,14.32-3.39,13.64,0,30.17,7.07,47.81,20.43,12.4,9.39,24.67,21.29,36.54,35.42-5.75-.35-11.53-.56-17.26-.65-2.05-.03-4.1-.05-6.14-.05-9.09,0-18.08.33-26.9.96,6.61-8.3,12.62-15.41,19.85-22.6,1.17-1.17,1.18-3.07,0-4.24l-7.05-7.09c-.56-.56-1.32-.88-2.12-.88h0c-.79,0-1.55.31-2.12.87-8.17,8.13-14.77,16.01-22.16,25.32-1.03,1.3-.81,3.18.49,4.21l6.25,4.96c-21.59,1.95-42.05,5.76-60.44,11.32-.1-1.04-.19-2.08-.27-3.09-2.44-31.09,4.55-53.5,19.18-61.51ZM61.47,114.02c1.09-.47,2.23-.95,3.41-1.42,2.9,15.19,7.43,31.07,13.5,47.29-6.83,16.39-12.09,32.52-15.67,48.03-8.59-3.84-16.23-8.09-22.74-12.65-11.06-7.74-24.2-20.21-23.96-35.6.26-16.68,16.83-33.31,45.47-45.65Z"/>
      <path class="cls-1" d="M167.7,173.08l6.38,18.8c.41,1.22,1.56,2.04,2.84,2.04h9.14c.97,0,1.88-.47,2.44-1.25.56-.79.71-1.8.4-2.71l-22.61-66.25c-.41-1.21-1.56-2.03-2.84-2.03h-10.32c-1.29,0-2.43.82-2.84,2.04l-22.51,66.25c-.31.92-.16,1.93.4,2.71s1.47,1.25,2.44,1.25h8.85c1.29,0,2.44-.83,2.85-2.06l6.2-18.78h19.18ZM157.47,145.13c.2-.63.4-1.27.6-1.92.22.68.44,1.38.68,2.08l5.14,15.1h-11.58l5.17-15.26Z"/>
      <rect class="cls-1" x="192.79" y="121.66" width="14.55" height="72.25" rx="3" ry="3"/>
      <path class="cls-1" d="M385.6,385.21l-28.29-16.37c-2.96-1.72-6.34-2.62-9.75-2.62-6.96,0-13.44,3.73-16.92,9.74l-2.95,5.09c-8.92-11.47-26.61-23.41-61.6-23.41-12.04,0-25.6,1.43-40.29,4.24-40.81,7.81-65.4,10.48-80.09,12.07-21.93,2.38-28.54,3.09-34.33,17.28-1.16,2.84-2,5.62-2.5,8.28-11.75-4.05-33.15-11.66-41.87-16.23-10.26-5.38-21.59-8.46-31.09-8.46-4.47,0-8.57.67-12.19,1.99-7.54,2.76-12.97,8.08-16.13,15.83-11.44,28.02,2.21,40.06,35.1,55.02,6.7,3.05,13.77,6.39,21.26,9.94,31.36,14.84,63.78,30.19,82.49,30.2,11.98,0,42.5-3.83,69.48-7.22,16.72-2.1,37.53-4.71,41.89-4.71h.11c5.61,1.24,9.6,4.06,11.57,5.73l-4.93,8.52c-5.39,9.31-2.2,21.28,7.11,26.67l28.29,16.37c2.96,1.72,6.33,2.62,9.73,2.62,1.7,0,3.41-.23,5.08-.67,5.05-1.35,9.26-4.57,11.87-9.07l66.09-114.17c5.39-9.31,2.2-21.28-7.11-26.67ZM260.75,460.12c-.74-.15-1.63-.22-2.81-.22-4.88,0-15.28,1.2-44.07,4.82-25.15,3.16-56.45,7.09-67.46,7.09-15.08,0-47.23-15.23-75.62-28.66-7.53-3.56-14.64-6.93-21.48-10.04-34.54-15.71-31.99-21.96-26.91-34.41,1.43-3.5,3.59-5.68,6.82-6.85,1.91-.7,4.19-1.05,6.77-1.05,8.02,0,17.45,3.44,23.6,6.67,11.79,6.17,41.12,16.23,51.62,19.75.02.03.04.07.05.1,4.73,8.67,14.42,14.27,29.63,17.1,4.31.8,9.41,1.21,15.2,1.21,25.7,0,57.77-8.01,59.12-8.35,4.28-1.08,6.88-5.43,5.8-9.71-.9-3.56-4.08-6.05-7.75-6.05-.66,0-1.32.08-1.97.25-.31.08-31.47,7.88-55.21,7.88-4.74,0-8.86-.32-12.25-.95-9.9-1.85-16.3-4.97-18.52-9.04-1.58-2.89-1.28-7.05.89-12.37,1.38-3.37,1.69-4.03,3.41-4.71,2.58-1.02,7.89-1.63,17.84-2.71,14.93-1.62,39.93-4.33,81.36-12.26,13.77-2.64,26.32-3.97,37.31-3.97,15.01,0,27.39,2.48,36.81,7.38,10.31,5.36,14.19,12.3,15.73,15.67l-41.07,70.95c-3.69-2.71-9.38-5.98-16.83-7.5ZM378.87,403.87l-66.09,114.17c-.46.8-1.22,1.38-2.14,1.62-.31.08-.63.12-.94.12-.61,0-1.19-.16-1.73-.47l-28.29-16.37c-1.68-.97-2.25-3.13-1.28-4.81l66.09-114.17c.63-1.08,1.8-1.75,3.06-1.75.61,0,1.22.16,1.75.47l28.29,16.37c1.68.97,2.25,3.13,1.28,4.81Z"/>
    </g>
  </g>
</svg>