<?xml version="1.0" encoding="UTF-8"?>
<svg id="Layer_2" data-name="Layer 2" xmlns="http://www.w3.org/2000/svg" viewBox="0 0 498.35 423.41">
  <defs>
    <style>
      .cls-1 {
        fill: #000;
        stroke-width: 0px;
      }
    </style>
  </defs>
  <g id="_ëîé_1" data-name="‘ëîé_1">
    <g>
      <path class="cls-1" d="M184.12,321.27c16.06,0,29.13-13.07,29.13-29.13s-13.07-29.13-29.13-29.13-29.13,13.07-29.13,29.13,13.07,29.13,29.13,29.13ZM184.12,279c7.24,0,13.13,5.89,13.13,13.13s-5.89,13.13-13.13,13.13-13.13-5.89-13.13-13.13,5.89-13.13,13.13-13.13Z"/>
      <path class="cls-1" d="M63.18,46.96c-17.36,0-31.48,14.12-31.48,31.48s14.12,31.48,31.48,31.48,31.48-14.12,31.48-31.48-14.12-31.48-31.48-31.48ZM63.18,93.93c-8.54,0-15.48-6.95-15.48-15.48s6.95-15.48,15.48-15.48,15.48,6.95,15.48,15.48-6.95,15.48-15.48,15.48Z"/>
      <path class="cls-1" d="M276.87,24.48c-10.33,0-18.74,8.41-18.74,18.74s8.41,18.74,18.74,18.74,18.74-8.41,18.74-18.74-8.41-18.74-18.74-18.74ZM276.87,47.96c-2.61,0-4.74-2.13-4.74-4.74s2.13-4.74,4.74-4.74,4.74,2.13,4.74,4.74-2.13,4.74-4.74,4.74Z"/>
      <path class="cls-1" d="M495.71,181.8l-32.81-38.86c-2.09-2.48-5.14-3.91-8.36-3.91-.15,0-.31,0-.45,0-3.4.12-6.5,1.78-8.5,4.53l-2.19,3.02-12.51-8.34,7.8-11.51c3.24-4.78,1.98-11.3-2.79-14.53l-19.45-13.19c-1.74-1.18-3.76-1.8-5.86-1.8s-4.12.62-5.83,1.76l-84.83-59.11c-1.72-22.48-20.36-39.88-43.09-39.88-11.12,0-21.58,4.18-29.64,11.8-.3-.04-.6-.05-.91-.05-.17,0-.34,0-.51.02l-154.26,10.26c-8.76-4.42-18.55-6.75-28.37-6.75C28.34,15.26,0,43.61,0,78.45c0,30.04,21.08,55.8,50.34,61.85l67.16,145.88c.43.93.9,1.92,1.42,2.99-4.83,10.42-7.38,21.97-7.38,33.5v30.75h-23.05c-21.6,0-39.17,17.57-39.17,39.17v27.84c0,1.66,1.34,3,3,3h277.69c1.66,0,3-1.34,3-3v-27.84c0-21.6-17.57-39.17-39.17-39.17h-23.05v-30.75c0-21.27-8.28-41.27-23.32-56.29-6.89-6.9-14.91-12.42-23.85-16.4-.93-1.46-1.78-2.76-2.57-3.95l-92.54-138.36,121.63-28.13c.75-.17,1.46-.45,2.11-.82,7.26,5.07,15.73,7.74,24.64,7.74,4.72,0,9.35-.76,13.8-2.27l83.9,58.47c-1.69,4.43-.19,9.62,3.9,12.4l19.45,13.19c1.74,1.18,3.77,1.81,5.86,1.81.66,0,1.33-.06,1.99-.19,2.75-.53,5.12-2.09,6.69-4.41l9.46-13.95,12.08,8.06-2.72,3.76c-2,2.76-2.61,6.21-1.67,9.48.94,3.27,3.28,5.88,6.44,7.16l47.13,19.13c1.35.55,2.77.83,4.2.83,3.51,0,6.73-1.66,8.84-4.56,3.03-4.17,2.82-9.62-.5-13.55ZM16,78.45c0-26.02,21.17-47.18,47.18-47.18s47.18,21.17,47.18,47.18-21.17,47.18-47.18,47.18-47.18-21.17-47.18-47.18ZM293.83,369.41c12.78,0,23.17,10.39,23.17,23.17v14.84H65.31v-14.84c0-12.78,10.4-23.17,23.17-23.17h205.35ZM224.91,330.41c.24-.26.47-.52.71-.78l.09-.1c.33-.37.66-.74.97-1.11.23-.27.44-.54.66-.8l.09-.12c.31-.38.61-.76.91-1.15.24-.31.47-.63.71-.95.29-.39.57-.79.85-1.18.22-.32.44-.65.66-.98.27-.41.53-.81.79-1.23.21-.33.41-.67.61-1,.25-.42.49-.84.73-1.26.19-.34.38-.67.56-1.02.23-.43.45-.86.67-1.3.17-.34.34-.69.5-1.03.21-.44.42-.89.61-1.33.16-.35.31-.7.46-1.05.19-.46.37-.92.55-1.38l.07-.18c.11-.29.23-.58.33-.87.17-.47.33-.94.49-1.42l.09-.26c.09-.26.18-.52.26-.79.14-.46.27-.92.43-1.46l.08-.28c.07-.25.14-.5.21-.75.13-.48.24-.96.37-1.52l.07-.3c.06-.24.11-.47.16-.71.1-.48.19-.96.28-1.44l.03-.16s.14-.74.17-.95c.09-.58.17-1.15.25-1.75,0,0,.09-.65.12-.84.08-.69.14-1.37.2-2.06l.05-.54c.12-1.74.16-3.51.12-5.25,0-.17-.01-.33-.02-.5v-.23c-.03-.63-.06-1.27-.11-1.9-.01-.21-.04-.42-.06-.63l-.04-.41c-.05-.53-.09-1.06-.16-1.59-.03-.24-.06-.48-.1-.71l-.06-.42c-.07-.49-.14-.98-.22-1.49-.04-.25-.09-.51-.14-.76l-.09-.49c-.09-.45-.17-.9-.27-1.35-.04-.16-.07-.32-.11-.49,10.55,11.69,16.32,26.67,16.32,42.54v30.75h-127.24v-30.75c0-4.98.58-9.91,1.72-14.73l7.11,12.32c9.88,17.11,28.3,27.74,48.07,27.74,9.67,0,19.25-2.57,27.69-7.44.8-.46,1.6-.95,2.37-1.45.17-.11.33-.22.5-.34l.35-.24c.48-.32.96-.64,1.43-.98.2-.14.39-.29.58-.43l.51-.38c.37-.28.74-.55,1.1-.84.2-.16.4-.33.6-.5l.47-.39c.34-.28.68-.56,1.02-.86.22-.19.43-.39.64-.59l.33-.31c.34-.31.67-.62.99-.93.23-.22.45-.45.68-.68l.16-.17c.35-.35.7-.71,1.04-1.07ZM207.74,254.92c2.53,3.78,4.97,7.7,7.25,11.65l3.6,6.22c10.88,18.84,4.4,43.02-14.44,53.9-6.01,3.46-12.83,5.29-19.7,5.29-14.07,0-27.18-7.56-34.21-19.74l-11.97-20.73c-2.25-3.9-4.35-7.95-6.23-12.04l-63.57-138.08c18.42-1.52,35.1-10.96,45.95-26.01l93.33,139.53ZM124.88,92.08c.99-4.46,1.48-9.03,1.48-13.63,0-15.33-5.67-30.19-15.74-41.66l125.63-8.35c-1.74,4.72-2.61,9.68-2.61,14.79,0,7.94,2.13,15.56,6.19,22.27l-114.95,26.59ZM276.87,70.45c-15.01,0-27.22-12.21-27.22-27.22s12.21-27.22,27.22-27.22,27.22,12.21,27.22,27.22-12.21,27.22-27.22,27.22ZM305.85,75.26c5.29-4.8,9.33-10.84,11.73-17.54l77.58,54.07-1.12,1.65-10.92,15.67-77.27-53.85ZM402.32,151.89l-10.29-6.97,15.17-22.38,4.94-7.09,10.2,6.91-20.03,29.54ZM447.98,167.53l6.81-9.39,15.62,18.5-22.43-9.11Z"/>
    </g>
  </g>
</svg>