<?xml version="1.0" encoding="UTF-8"?>
<svg id="Layer_2" data-name="Layer 2" xmlns="http://www.w3.org/2000/svg" viewBox="0 0 516.5 348.01">
  <defs>
    <style>
      .cls-1 {
        fill: #000;
        stroke-width: 0px;
      }
    </style>
  </defs>
  <g id="_ëîé_1" data-name="‘ëîé_1">
    <g>
      <rect class="cls-1" x="27.81" y="249.64" width="16" height="94.39" rx="3" ry="3"/>
      <rect class="cls-1" x="27.81" y="5.82" width="16" height="94.39" rx="3" ry="3"/>
      <rect class="cls-1" x="210.68" y="249.64" width="16" height="94.39" rx="3" ry="3"/>
      <rect class="cls-1" x="119.4" y="127.73" width="16" height="94.39" rx="3" ry="3"/>
      <rect class="cls-1" x="210.68" y="5.82" width="16" height="94.39" rx="3" ry="3"/>
      <rect class="cls-1" x="398.63" y="249.64" width="16" height="94.39" rx="3" ry="3"/>
      <rect class="cls-1" x="305.07" y="127.73" width="16" height="94.39" rx="3" ry="3"/>
      <path class="cls-1" d="M35.57,124.93C15.63,124.93,0,146.74,0,174.59s15.63,49.65,35.57,49.65,35.57-21.81,35.57-49.65-15.63-49.65-35.57-49.65ZM35.57,208.24c-10.43,0-19.57-15.73-19.57-33.65s9.15-33.65,19.57-33.65,19.57,15.73,19.57,33.65-9.15,33.65-19.57,33.65Z"/>
      <path class="cls-1" d="M218.13,126.92c-19.95,0-35.57,21.81-35.57,49.65s15.63,49.65,35.57,49.65,35.57-21.81,35.57-49.65-15.63-49.65-35.57-49.65ZM218.13,210.22c-10.43,0-19.57-15.73-19.57-33.65s9.15-33.65,19.57-33.65,19.57,15.73,19.57,33.65-9.15,33.65-19.57,33.65Z"/>
      <path class="cls-1" d="M129.13,3.69c-19.95,0-35.57,21.81-35.57,49.65s15.63,49.65,35.57,49.65,35.57-21.81,35.57-49.65S149.08,3.69,129.13,3.69ZM129.13,87c-10.43,0-19.57-15.73-19.57-33.65s9.15-33.65,19.57-33.65,19.57,15.73,19.57,33.65-9.15,33.65-19.57,33.65Z"/>
      <path class="cls-1" d="M129.13,248.7c-19.95,0-35.57,21.81-35.57,49.65s15.63,49.65,35.57,49.65,35.57-21.81,35.57-49.65-15.63-49.65-35.57-49.65ZM129.13,332.01c-10.43,0-19.57-15.73-19.57-33.65s9.15-33.65,19.57-33.65,19.57,15.73,19.57,33.65-9.15,33.65-19.57,33.65Z"/>
      <path class="cls-1" d="M293.61,95.17c.54.45,1.22.69,1.92.69.09,0,.18,0,.27-.01.79-.07,1.52-.46,2.03-1.07l6.39-7.69c.51-.61.75-1.4.68-2.19-.07-.79-.46-1.52-1.07-2.03-7.04-5.85-11.41-17.49-11.41-30.37,0-17.93,9.15-33.65,19.57-33.65,3.93,0,7.13,2.26,9.13,4.15.58.55,1.32.82,2.06.82.79,0,1.59-.31,2.18-.94l6.88-7.26c1.14-1.2,1.09-3.1-.11-4.24-5.89-5.58-12.86-8.54-20.14-8.54-19.95,0-35.57,21.81-35.57,49.65,0,17.51,6.58,33.86,17.18,42.67Z"/>
      <path class="cls-1" d="M439.01,163.36h-10c-1.66,0-3,1.34-3,3v11.41c0,17.89-8.66,32.45-19.31,32.45s-19.57-15.73-19.57-33.65c0-1.66-1.34-3-3-3h-10c-1.66,0-3,1.34-3,3,0,27.84,15.63,49.65,35.57,49.65s35.31-20.83,35.31-48.45v-11.41c0-1.66-1.34-3-3-3Z"/>
      <path class="cls-1" d="M312,248.7c-19.95,0-35.57,21.81-35.57,49.65s15.63,49.65,35.57,49.65,35.57-21.81,35.57-49.65-15.63-49.65-35.57-49.65ZM312,332.01c-10.43,0-19.57-15.73-19.57-33.65s9.15-33.65,19.57-33.65,19.57,15.73,19.57,33.65-9.15,33.65-19.57,33.65Z"/>
      <path class="cls-1" d="M516.48,182.96c-.1-.79-.5-1.51-1.13-2l-61.62-48.11c15.54-19.88,21.2-45.98,15.12-70.46-5.29-21.3-18.56-39.26-37.36-50.59-12.83-7.72-27.44-11.81-42.25-11.81-6.68,0-13.38.82-19.94,2.45-21.3,5.29-39.27,18.55-50.59,37.36-11.32,18.8-14.64,40.89-9.36,62.19,9.12,36.72,41.91,62.37,79.75,62.37,6.64,0,13.3-.82,19.79-2.43,12.45-3.09,24.06-9.1,33.74-17.43l62.85,49.07c.55.43,1.2.64,1.84.64.89,0,1.77-.4,2.37-1.15l6.15-7.88c.49-.63.71-1.42.61-2.21ZM405.05,146.41c-5.23,1.3-10.6,1.96-15.94,1.96-30.47,0-56.88-20.66-64.22-50.23-4.26-17.15-1.58-34.94,7.53-50.08,9.12-15.14,23.58-25.82,40.74-30.08,5.28-1.31,10.69-1.98,16.07-1.98,11.92,0,23.68,3.29,34.01,9.51,15.14,9.12,25.82,23.58,30.08,40.74,8.79,35.41-12.86,71.37-48.27,80.16Z"/>
      <path class="cls-1" d="M394.05,21.52c-.37-.05-.74-.08-1.12-.08-3.96,0-7.37,2.96-7.91,6.89-.3,2.12.25,4.22,1.53,5.93,1.29,1.71,3.16,2.81,5.28,3.11,17.25,2.42,29.06,10.67,36.13,25.23,1.33,2.74,4.16,4.51,7.2,4.51,1.22,0,2.39-.27,3.49-.8,3.97-1.92,5.63-6.72,3.71-10.69-9.44-19.46-25.69-30.93-48.31-34.1Z"/>
    </g>
  </g>
</svg>