<?xml version="1.0" encoding="UTF-8"?>
<svg id="Layer_2" data-name="Layer 2" xmlns="http://www.w3.org/2000/svg" viewBox="0 0 415.9 415.9">
  <defs>
    <style>
      .cls-1 {
        fill: #000;
        stroke-width: 0px;
      }
    </style>
  </defs>
  <g id="_ëîé_1" data-name="‘ëîé_1">
    <g>
      <path class="cls-1" d="M196.91,324.58c-5.52,0-10.76-2.39-14.38-6.57-3.61-4.17-5.24-9.7-4.45-15.16.33-2.26-.92-4.46-3.02-5.34l-7.29-3.07c-.62-.26-1.28-.39-1.95-.39-1.57,0-3.07.75-4.02,2.01l-.08.11c-3.31,4.43-8.37,7.19-13.88,7.58-.46.03-.91.05-1.37.05-5.07,0-9.85-1.98-13.44-5.57l-15.62-15.62c-3.9-3.9-5.92-9.3-5.52-14.8.39-5.5,3.15-10.56,7.57-13.87l.33-.25c1.83-1.37,2.51-3.81,1.65-5.92l-2.82-6.91c-.78-1.9-2.59-3.12-4.64-3.12-.24,0-.48.02-.73.05l-.19.03c-.9.13-1.81.19-2.72.19-4.57,0-9-1.65-12.45-4.64-4.17-3.62-6.57-8.85-6.57-14.38v-22.09c0-5.52,2.39-10.76,6.56-14.38,3.46-3,7.88-4.64,12.45-4.64.9,0,1.81.07,2.71.19l.31.04c.25.04.49.05.73.05,2.02,0,3.84-1.21,4.62-3.08l2.98-7.11c.89-2.13.23-4.58-1.62-5.96-4.5-3.37-7.26-8.42-7.66-13.93-.39-5.5,1.62-10.9,5.52-14.81l15.62-15.62c3.59-3.59,8.37-5.57,13.45-5.57.45,0,.9.02,1.35.05,5.51.39,10.56,3.15,13.87,7.57.98,1.31,2.46,2.06,4.07,2.06.65,0,1.28-.13,1.89-.37l6.86-2.8c2.14-.87,3.4-3.08,3.07-5.36l-.03-.2c-.78-5.46.84-10.99,4.46-15.16,3.61-4.17,8.85-6.56,14.37-6.56h22.09c5.52,0,10.76,2.39,14.38,6.56,3.61,4.17,5.24,9.7,4.45,15.16-.33,2.27.92,4.47,3.03,5.35l7.29,3.06c.62.26,1.28.4,1.95.4,1.57,0,3.07-.75,4.01-2.01l.09-.12c3.31-4.42,8.37-7.18,13.88-7.58.45-.03.91-.05,1.36-.05,5.08,0,9.85,1.98,13.44,5.57l15.62,15.62c3.9,3.9,5.92,9.3,5.52,14.81-.39,5.51-3.15,10.56-7.57,13.87l-.32.24c-1.83,1.37-2.51,3.81-1.64,5.92l2.82,6.91c.77,1.89,2.6,3.12,4.65,3.12.24,0,.48-.02.72-.05l.17-.03c.91-.13,1.82-.2,2.73-.2,4.57,0,8.99,1.65,12.45,4.65,4.17,3.62,6.56,8.85,6.56,14.37v22.09c0,5.52-2.39,10.76-6.56,14.38-3.46,3-7.88,4.64-12.45,4.64-.9,0-1.81-.07-2.71-.19l-.3-.04c-.23-.03-.47-.05-.71-.05-2.03,0-3.85,1.21-4.63,3.08l-2.99,7.11c-.89,2.13-.23,4.58,1.62,5.96.01,0,.03.02.04.03,4.47,3.35,7.22,8.39,7.61,13.9.39,5.51-1.62,10.91-5.52,14.81l-15.62,15.61c-3.59,3.59-8.36,5.57-13.44,5.57-.45,0-.91-.02-1.37-.05-5.51-.4-10.56-3.16-13.87-7.58-.98-1.3-2.46-2.05-4.06-2.05-.65,0-1.29.12-1.89.37l-6.86,2.8c-2.14.87-3.4,3.08-3.07,5.36l.03.2c.79,5.45-.84,10.98-4.45,15.15-3.61,4.17-8.85,6.57-14.38,6.57h-22.08ZM165.82,280.04c2.54,0,5.02.5,7.37,1.49l7.29,3.07c7.98,3.35,12.69,11.68,11.46,20.24-.21,1.44.22,2.9,1.17,4,.96,1.1,2.34,1.73,3.79,1.73h22.08c1.46,0,2.84-.63,3.79-1.73.95-1.1,1.38-2.56,1.17-4l-.03-.2c-1.24-8.64,3.54-16.99,11.63-20.3l6.86-2.8c2.3-.94,4.71-1.41,7.19-1.41,5.97,0,11.67,2.85,15.24,7.63.89,1.19,2.24,1.94,3.69,2.04.12,0,.24.01.36.01,1.34,0,2.6-.52,3.55-1.47l15.62-15.61c1.03-1.03,1.56-2.45,1.46-3.91-.1-1.45-.83-2.79-2-3.66,0,0-.07-.06-.1-.08-6.98-5.23-9.5-14.51-6.11-22.57l2.99-7.11c2.97-7.08,9.85-11.66,17.53-11.66.9,0,1.82.07,2.72.19l.3.04c.23.03.47.05.71.05,1.21,0,2.38-.44,3.29-1.23,1.1-.95,1.73-2.34,1.73-3.79v-22.09c0-1.46-.63-2.84-1.73-3.79-.91-.79-2.08-1.23-3.29-1.23-.24,0-.48.02-.71.05l-.17.03c-.92.13-1.83.2-2.73.2-7.75,0-14.66-4.64-17.6-11.83l-2.82-6.91c-3.28-8.01-.72-17.23,6.21-22.42l.32-.24c1.17-.88,1.9-2.21,2.01-3.67.1-1.45-.43-2.88-1.46-3.91l-15.62-15.62c-.93-.93-2.23-1.47-3.55-1.47-.12,0-.24,0-.36.01-1.46.1-2.79.83-3.66,2l-.09.12c-3.58,4.78-9.27,7.63-15.22,7.63-2.54,0-5.02-.5-7.37-1.49l-7.29-3.06c-7.98-3.35-12.7-11.68-11.46-20.25.21-1.45-.22-2.91-1.17-4.01-.96-1.1-2.34-1.73-3.79-1.73h-22.09c-1.46,0-2.84.63-3.79,1.73-.95,1.1-1.38,2.56-1.17,4l.03.21c1.24,8.65-3.54,17-11.63,20.31l-6.86,2.8c-2.29.94-4.71,1.41-7.18,1.41-5.96,0-11.66-2.85-15.23-7.62-.91-1.21-2.22-1.94-3.7-2.05-.12,0-.24-.01-.36-.01-1.34,0-2.6.52-3.55,1.47l-15.62,15.62c-1.03,1.03-1.56,2.46-1.46,3.91.1,1.45.83,2.79,2,3.66,7.08,5.3,9.6,14.58,6.22,22.64l-2.98,7.11c-2.97,7.08-9.85,11.66-17.53,11.66-.9,0-1.82-.07-2.72-.19l-.3-.04c-.24-.03-.48-.05-.72-.05-1.21,0-2.38.43-3.29,1.22-1.1.96-1.73,2.34-1.73,3.79v22.09c0,1.46.63,2.84,1.73,3.79.91.79,2.08,1.22,3.29,1.22.24,0,.48-.02.72-.05l.2-.03c.91-.13,1.82-.2,2.72-.2,7.75,0,14.66,4.64,17.59,11.83l2.82,6.9c3.27,8.01.72,17.23-6.21,22.42l-.33.25c-1.17.88-1.9,2.21-2.01,3.67-.1,1.45.43,2.88,1.46,3.91l15.62,15.62c.95.95,2.21,1.47,3.55,1.47.12,0,.24,0,.36-.01,1.45-.1,2.78-.83,3.66-2l.08-.11c3.58-4.78,9.27-7.64,15.23-7.64Z"/>
      <path class="cls-1" d="M68.35,359.31c-6.49,0-11.77-5.28-11.77-11.77V68.35c0-6.49,5.28-11.77,11.77-11.77h279.19c6.49,0,11.77,5.28,11.77,11.77v279.19c0,6.49-5.28,11.77-11.77,11.77H68.35ZM345.31,345.31V70.59H70.59v274.73h274.73Z"/>
      <path class="cls-1" d="M207.95,257.68c-27.42,0-49.73-22.31-49.73-49.73s22.31-49.73,49.73-49.73,49.73,22.31,49.73,49.73-22.31,49.73-49.73,49.73ZM207.95,172.22c-19.7,0-35.73,16.03-35.73,35.73s16.03,35.73,35.73,35.73,35.73-16.03,35.73-35.73-16.03-35.73-35.73-35.73Z"/>
      <g>
        <path class="cls-1" d="M146.09,53.66c-3.86,0-7-3.14-7-7V7c0-3.86,3.14-7,7-7s7,3.14,7,7v39.66c0,3.86-3.14,7-7,7Z"/>
        <path class="cls-1" d="M207.95,53.66c-3.86,0-7-3.14-7-7V7c0-3.86,3.14-7,7-7s7,3.14,7,7v39.66c0,3.86-3.14,7-7,7Z"/>
        <path class="cls-1" d="M269.81,53.66c-3.86,0-7-3.14-7-7V7c0-3.86,3.14-7,7-7s7,3.14,7,7v39.66c0,3.86-3.14,7-7,7Z"/>
      </g>
      <g>
        <path class="cls-1" d="M7,276.81c-3.86,0-7-3.14-7-7s3.14-7,7-7h39.66c3.86,0,7,3.14,7,7s-3.14,7-7,7H7Z"/>
        <path class="cls-1" d="M7,214.95c-3.86,0-7-3.14-7-7s3.14-7,7-7h39.66c3.86,0,7,3.14,7,7s-3.14,7-7,7H7Z"/>
        <path class="cls-1" d="M7,153.09c-3.86,0-7-3.14-7-7s3.14-7,7-7h39.66c3.86,0,7,3.14,7,7s-3.14,7-7,7H7Z"/>
      </g>
      <g>
        <path class="cls-1" d="M269.81,415.9c-3.86,0-7-3.14-7-7v-39.66c0-3.86,3.14-7,7-7s7,3.14,7,7v39.66c0,3.86-3.14,7-7,7Z"/>
        <path class="cls-1" d="M207.95,415.9c-3.86,0-7-3.14-7-7v-39.66c0-3.86,3.14-7,7-7s7,3.14,7,7v39.66c0,3.86-3.14,7-7,7Z"/>
        <path class="cls-1" d="M146.09,415.9c-3.86,0-7-3.14-7-7v-39.66c0-3.86,3.14-7,7-7s7,3.14,7,7v39.66c0,3.86-3.14,7-7,7Z"/>
      </g>
      <g>
        <path class="cls-1" d="M369.24,153.09c-3.86,0-7-3.14-7-7s3.14-7,7-7h39.66c3.86,0,7,3.14,7,7s-3.14,7-7,7h-39.66Z"/>
        <path class="cls-1" d="M369.24,214.95c-3.86,0-7-3.14-7-7s3.14-7,7-7h39.66c3.86,0,7,3.14,7,7s-3.14,7-7,7h-39.66Z"/>
        <path class="cls-1" d="M369.24,276.81c-3.86,0-7-3.14-7-7s3.14-7,7-7h39.66c3.86,0,7,3.14,7,7s-3.14,7-7,7h-39.66Z"/>
      </g>
    </g>
  </g>
</svg>