<?xml version="1.0" encoding="UTF-8"?>
<svg id="Layer_2" data-name="Layer 2" xmlns="http://www.w3.org/2000/svg" viewBox="0 0 450.39 497.67">
  <defs>
    <style>
      .cls-1 {
        fill: #fff;
        stroke-width: 0px;
      }
    </style>
  </defs>
  <g id="_ëîé_1" data-name="‘ëîé_1">
    <g>
      <path class="cls-1" d="M417.07,210.77c26.83-50.55,18.67-81.12,1.58-93-5.28-3.67-11.53-5.61-18.09-5.61-10.54,0-20.76,4.92-28.02,13.48-2.95,3.47-2.52,8.7.96,11.65,1.49,1.26,3.39,1.95,5.33,1.95,2.43,0,4.73-1.06,6.3-2.92,4.16-4.91,9.74-7.72,15.31-7.72,3.17,0,6.2.94,8.77,2.73,11.03,7.67,13.45,30.86-4,66.32-19.44-19.45-44.2-35.25-72.28-46.04-.95-.36-1.94-.55-2.95-.55-3.4,0-6.5,2.13-7.72,5.3-1.63,4.25.5,9.04,4.75,10.67,29.64,11.39,55.18,28.73,73.86,50.15,21.58,24.73,32.99,53.67,32.99,83.68,0,43.96-24.79,85.48-68.02,113.93-2.31,1.52-3.7,4.08-3.72,6.85l-.29,46.14c-.05,6.79-5.42,12.32-12.22,12.57l-21.47.78c-.16,0-.33,0-.49,0-6.6,0-12.15-5.16-12.63-11.73l-1.41-19.68c-.17-2.46-1.42-4.69-3.42-6.12-1.41-1.01-3.08-1.55-4.81-1.55-.7,0-1.41.09-2.09.27-19.63,5.12-40.12,7.71-60.93,7.71s-41.32-2.59-60.97-7.71c-.68-.18-1.38-.27-2.09-.27-1.74,0-3.4.54-4.82,1.55-2,1.43-3.25,3.67-3.42,6.12l-1.41,19.66c-.49,6.7-5.95,11.75-12.7,11.75-.15,0-.29,0-.43,0l-21.46-.78c-6.81-.25-12.18-5.77-12.23-12.56l-.29-46.15c-.02-2.77-1.41-5.33-3.72-6.85-24.97-16.41-44.26-37.68-55.78-61.53-1.37-2.84-4.29-4.67-7.44-4.67h-25.68c-4.53,0-8.29-3.39-8.74-7.89l-4.63-44.81c-.27-2.5.52-4.92,2.21-6.79,1.67-1.86,4.05-2.92,6.54-2.92h19.35c3.98,0,7.39-2.84,8.12-6.75,6.19-33.38,27.18-64.54,59.08-87.74.34-.25.71-.56,1.02-.88.02-.02.05-.05.07-.07,1.52-1.55,2.35-3.59,2.35-5.75,0-.27-.01-.54-.04-.81-.31-21.76-6.79-42.58-18.79-60.57,27.21,1.04,52.6,13.57,70.13,34.74,1.57,1.9,3.89,2.99,6.37,2.99,1.92,0,3.79-.67,5.26-1.9,1.7-1.41,2.75-3.39,2.96-5.59.21-2.2-.45-4.34-1.86-6.04-21.46-25.92-53.06-40.79-86.71-40.79-4.34,0-8.73.28-13.44.85-3.08.37-5.66,2.41-6.74,5.31-1.08,2.9-.47,6.13,1.61,8.43,14.77,16.36,23.47,37.38,24.59,59.34-31.16,23.74-52.6,55.11-60.66,88.72h-12.67c-7.16,0-14.02,3.06-18.82,8.4-4.79,5.33-7.11,12.46-6.35,19.57l4.63,44.76c1.3,12.96,12.12,22.74,25.17,22.74h20.6c12.34,23.39,31.49,44.42,55.52,60.99l.26,41.79c.11,15.66,12.47,28.37,28.14,28.95l21.43.78c.45.02.89.03,1.33.03h0c15.09,0,27.78-11.9,28.9-27.09l.71-9.97c18.05,3.95,36.71,5.95,55.52,5.95,18.81,0,37.46-2,55.47-5.95l.71,9.99c1.14,15.43,13.65,27.06,29.11,27.06.37,0,.74,0,1.1-.02l21.47-.78c15.66-.58,28.01-13.3,28.13-28.96l.26-41.79c45.64-31.46,71.77-77.03,71.77-125.24,0-32.26-11.5-63.29-33.32-90.09Z"/>
      <path class="cls-1" d="M181.14,185.04c-2.12.62-3.87,2.02-4.93,3.96-1.06,1.93-1.3,4.17-.68,6.29,1.02,3.5,4.28,5.94,7.93,5.94.78,0,1.56-.11,2.32-.33,18.05-5.27,37.09-7.94,56.58-7.94,25.83,0,51.41,4.78,73.96,13.81.98.39,2.01.59,3.07.59,3.4,0,6.41-2.04,7.67-5.19,1.69-4.22-.37-9.04-4.6-10.74-24.49-9.81-52.19-14.99-80.1-14.99-21.06,0-41.65,2.9-61.21,8.61Z"/>
      <path class="cls-1" d="M255.56,155.05c42.75,0,77.52-34.78,77.52-77.52S298.3,0,255.56,0s-77.52,34.78-77.52,77.52,34.78,77.52,77.52,77.52ZM255.56,16.52c33.64,0,61,27.37,61,61s-27.37,61-61,61-61-27.37-61-61,27.37-61,61-61Z"/>
    </g>
  </g>
</svg>