<?xml version="1.0" encoding="UTF-8"?>
<svg id="Layer_2" data-name="Layer 2" xmlns="http://www.w3.org/2000/svg" viewBox="0 0 522.54 467.13">
  <defs>
    <style>
      .cls-1 {
        fill: #000;
        stroke-width: 0px;
      }
    </style>
  </defs>
  <g id="_ëîé_1" data-name="‘ëîé_1">
    <g>
      <path class="cls-1" d="M191.42,346.12c-.16,0-.32,0-.5.01-3.13.2-6.33.29-9.51.29-91,0-165.03-74.03-165.03-165.03S90.41,16.37,181.4,16.37c56.99,0,109.19,28.79,139.64,77.02,1.51,2.39,4.1,3.82,6.93,3.82,1.54,0,3.05-.44,4.37-1.26,3.82-2.41,4.96-7.48,2.55-11.29C301.42,31.65,244.05,0,181.4,0,81.38,0,0,81.38,0,181.4s81.38,181.4,181.4,181.4c3.52,0,7.07-.11,10.54-.33,2.18-.14,4.18-1.11,5.63-2.75,1.45-1.64,2.17-3.74,2.03-5.93-.27-4.37-3.79-7.67-8.18-7.67Z"/>
      <path class="cls-1" d="M241.48,131.84l-81.75,81.75-38.4-38.4c-1.55-1.55-3.6-2.4-5.79-2.4s-4.24.85-5.79,2.4c-1.55,1.54-2.4,3.6-2.4,5.79s.85,4.24,2.4,5.79l44.19,44.19c1.55,1.55,3.6,2.4,5.79,2.4s4.24-.85,5.79-2.4l87.54-87.54c1.55-1.55,2.4-3.6,2.4-5.79s-.85-4.24-2.4-5.79c-1.55-1.55-3.6-2.4-5.79-2.4s-4.24.85-5.79,2.4Z"/>
      <path class="cls-1" d="M520.96,282.48c-1.53-2.1-4-3.35-6.61-3.35h-143.65c-3.59,0-6.73,2.3-7.81,5.72l-21.13,66.9c-1.36,4.3,1.04,8.91,5.33,10.26.81.26,1.65.39,2.49.39,3.58,0,6.71-2.3,7.79-5.73l19.32-61.18h126.46l-49.35,155.25h-59.53c-4.51,0-8.19,3.67-8.19,8.19s3.67,8.19,8.19,8.19h65.52c3.58,0,6.72-2.29,7.8-5.71l54.56-171.63c.79-2.48.34-5.21-1.19-7.31Z"/>
      <path class="cls-1" d="M305.33,175.73c.05,40.78,32.7,73.96,72.8,73.96h.09c40.14-.05,72.76-33.29,72.72-74.12-.02-19.75-7.59-38.32-21.33-52.28-13.75-13.98-32.03-21.68-51.56-21.68-40.14.05-72.76,33.29-72.72,74.12ZM378.07,117.99v-3s.06,3,.06,3c15.02,0,29.15,5.96,39.8,16.79,10.71,10.89,16.61,25.38,16.62,40.81.04,31.8-25.25,57.69-56.42,57.73-31.08,0-56.4-25.84-56.43-57.6-.04-31.8,25.25-57.69,56.37-57.73Z"/>
      <path class="cls-1" d="M369,392.69c-7.38-7.42-17.22-11.51-27.71-11.51h-45.11v-16.36c0-4.51-3.67-8.19-8.19-8.19s-8.19,3.67-8.19,8.19v24.54c0,4.51,3.67,8.19,8.19,8.19h53.29c6.1,0,11.83,2.39,16.16,6.75,1.55,1.53,2.88,3.32,3.96,5.37,1.78,3.3,2.69,6.9,2.69,10.7,0,12.58-10.23,22.81-22.81,22.81h-80.12c-14.88,0-26.99-12.11-26.99-26.99v-67.53c0-35.23,26.02-61.8,60.53-61.8l41.31-.07c4.51,0,8.18-3.69,8.17-8.2,0-4.51-3.68-8.17-8.2-8.17l-41.29.07c-43.83,0-76.89,33.61-76.89,78.17v67.53c0,23.91,19.45,43.36,43.36,43.36h80.12c21.61,0,39.18-17.58,39.18-39.18,0-6.46-1.6-12.83-4.62-18.41-1.83-3.48-4.15-6.61-6.86-9.27Z"/>
    </g>
  </g>
</svg>