<?xml version="1.0" encoding="UTF-8"?>
<svg id="Layer_2" data-name="Layer 2" xmlns="http://www.w3.org/2000/svg" viewBox="0 0 414.68 419.02">
  <defs>
    <style>
      .cls-1 {
        fill: #000;
        stroke-width: 0px;
      }
    </style>
  </defs>
  <g id="_ëîé_1" data-name="‘ëîé_1">
    <g>
      <path class="cls-1" d="M306.46,419.02c-59.68,0-108.23-48.55-108.23-108.23s48.55-108.23,108.23-108.23,108.23,48.55,108.23,108.23-48.55,108.23-108.23,108.23ZM306.46,216.56c-51.96,0-94.23,42.27-94.23,94.23s42.27,94.23,94.23,94.23,94.23-42.27,94.23-94.23-42.27-94.23-94.23-94.23Z"/>
      <path class="cls-1" d="M306.45,287.47c-12.86,0-25.45-1.09-37.44-3.24-21.71-3.89-40.56-11.28-53.07-20.83-1.49-1.13-2.44-2.78-2.69-4.63-.25-1.85.24-3.69,1.37-5.18,1.33-1.75,3.36-2.76,5.57-2.76,1.55,0,3.01.5,4.24,1.44,10.78,8.22,27.49,14.68,47.05,18.18,11.18,2.01,22.94,3.02,34.97,3.02s23.79-1.02,34.96-3.02c19.58-3.5,36.29-9.96,47.07-18.18,1.23-.94,2.7-1.43,4.24-1.43,2.2,0,4.23,1,5.57,2.76,1.13,1.49,1.62,3.32,1.37,5.18-.25,1.85-1.21,3.5-2.69,4.63-12.51,9.54-31.36,16.94-53.09,20.83-11.98,2.15-24.58,3.24-37.43,3.24Z"/>
      <path class="cls-1" d="M392.73,370.75c-1.55,0-3.01-.5-4.24-1.43-10.77-8.22-27.49-14.67-47.06-18.18-11.17-2.01-22.94-3.02-34.97-3.02s-23.79,1.02-34.96,3.02c-19.57,3.5-36.28,9.96-47.05,18.18-1.23.94-2.7,1.43-4.24,1.43-2.2,0-4.23-1-5.57-2.75-1.13-1.49-1.62-3.33-1.37-5.18.25-1.85,1.21-3.5,2.69-4.63,12.51-9.55,31.36-16.94,53.07-20.83,11.98-2.15,24.58-3.24,37.43-3.24s25.45,1.09,37.44,3.24c21.72,3.89,40.58,11.29,53.08,20.83,1.49,1.13,2.44,2.78,2.69,4.63.25,1.85-.24,3.69-1.37,5.18-1.33,1.75-3.36,2.75-5.57,2.75Z"/>
      <path class="cls-1" d="M306.46,419.02c-13.36,0-25.32-12.13-33.67-34.17-7.54-19.89-11.69-46.19-11.69-74.06s4.15-54.17,11.69-74.06c8.35-22.03,20.31-34.17,33.67-34.17s25.32,12.13,33.67,34.17c7.54,19.89,11.69,46.19,11.69,74.06s-4.15,54.17-11.69,74.06c-8.35,22.03-20.31,34.17-33.67,34.17ZM306.46,216.56c-6.92,0-14.62,9.39-20.58,25.13-6.95,18.35-10.78,42.89-10.78,69.1s3.83,50.75,10.78,69.1c5.96,15.73,13.65,25.13,20.58,25.13s14.61-9.39,20.58-25.13c6.95-18.35,10.78-42.88,10.78-69.1s-3.83-50.75-10.78-69.1c-5.96-15.73-13.66-25.13-20.58-25.13Z"/>
      <path class="cls-1" d="M306.45,419.01c-3.86,0-7-3.14-7-7v-202.44c0-3.86,3.14-7,7-7s7,3.14,7,7v202.44c0,3.86-3.14,7-7,7Z"/>
      <path class="cls-1" d="M205.23,317.79c-3.86,0-7-3.14-7-7s3.14-7,7-7h202.44c3.86,0,7,3.14,7,7s-3.14,7-7,7h-202.44Z"/>
      <path class="cls-1" d="M13.35,104.85c-7.36,0-13.35-5.99-13.35-13.35V13.35C0,5.99,5.99,0,13.35,0h317.08c7.36,0,13.35,5.99,13.35,13.35v78.16c0,7.36-5.99,13.35-13.35,13.35H13.35ZM329.78,90.85V14H14v76.85h315.78Z"/>
      <g>
        <path class="cls-1" d="M37.03,59.43c-3.86,0-7-3.14-7-7s3.14-7,7-7h26.09c3.86,0,7,3.14,7,7s-3.14,7-7,7h-26.09Z"/>
        <path class="cls-1" d="M86.6,59.43c-3.86,0-7-3.14-7-7s3.14-7,7-7h26.09c3.86,0,7,3.14,7,7s-3.14,7-7,7h-26.09Z"/>
        <path class="cls-1" d="M136.17,59.43c-3.86,0-7-3.14-7-7s3.14-7,7-7h170.57c3.86,0,7,3.14,7,7s-3.14,7-7,7h-170.57Z"/>
      </g>
      <path class="cls-1" d="M17.31,229.27C7.77,229.27,0,221.5,0,211.96v-70.24c0-9.54,7.76-17.29,17.31-17.29h309.15c9.54,0,17.31,7.76,17.31,17.29v30.39c0,3.86-3.14,7-7,7s-7-3.14-7-7v-30.39c0-1.82-1.48-3.29-3.31-3.29H17.31c-1.82,0-3.31,1.48-3.31,3.29v70.24c0,1.82,1.48,3.31,3.31,3.31h178.18c3.86,0,7,3.14,7,7s-3.14,7-7,7H17.31Z"/>
      <g>
        <path class="cls-1" d="M37.03,183.84c-3.86,0-7-3.14-7-7s3.14-7,7-7h26.09c3.86,0,7,3.14,7,7s-3.14,7-7,7h-26.09Z"/>
        <path class="cls-1" d="M86.6,183.84c-3.86,0-7-3.14-7-7s3.14-7,7-7h26.09c3.86,0,7,3.14,7,7s-3.14,7-7,7h-26.09Z"/>
        <path class="cls-1" d="M136.17,183.85c-3.86,0-7-3.14-7-7s3.14-7,7-7h123.21c3.86,0,7,3.14,7,7s-3.14,7-7,7h-123.21Z"/>
      </g>
      <path class="cls-1" d="M17.31,353.68C7.77,353.68,0,345.93,0,336.39v-70.24c0-9.54,7.76-17.31,17.31-17.31h158.23c3.86,0,7,3.14,7,7s-3.14,7-7,7H17.31c-1.82,0-3.31,1.48-3.31,3.31v70.24c0,1.82,1.48,3.29,3.31,3.29h151.77c3.86,0,7,3.14,7,7s-3.14,7-7,7H17.31Z"/>
      <g>
        <path class="cls-1" d="M37.03,308.26c-3.86,0-7-3.14-7-7s3.14-7,7-7h26.09c3.86,0,7,3.14,7,7s-3.14,7-7,7h-26.09Z"/>
        <path class="cls-1" d="M86.6,308.26c-3.86,0-7-3.14-7-7s3.14-7,7-7h26.09c3.86,0,7,3.14,7,7s-3.14,7-7,7h-26.09Z"/>
        <path class="cls-1" d="M136.17,308.26c-3.86,0-7-3.14-7-7s3.14-7,7-7h28.65c3.86,0,7,3.14,7,7s-3.14,7-7,7h-28.65Z"/>
      </g>
    </g>
  </g>
</svg>