<?xml version="1.0" encoding="UTF-8"?>
<svg id="Layer_2" data-name="Layer 2" xmlns="http://www.w3.org/2000/svg" viewBox="0 0 527.2 508.98">
  <defs>
    <style>
      .cls-1 {
        fill: #fff;
        stroke-width: 0px;
      }
    </style>
  </defs>
  <g id="_ëîé_1" data-name="‘ëîé_1">
    <g>
      <path class="cls-1" d="M260.24,508.98c-.96,0-1.9-.17-2.8-.5-3.16-1.17-5.28-4.22-5.28-7.59v-31.92h-109.62c-4.46,0-8.09-3.63-8.09-8.09s3.63-8.09,8.09-8.09h117.71c4.46,0,8.09,3.63,8.09,8.09v18.15l59.79-69.75-59.79-69.72v18.12c0,4.46-3.63,8.09-8.09,8.09H103.11c-4.46,0-8.09-3.63-8.09-8.09s3.63-8.09,8.09-8.09h149.04v-31.89c0-3.36,2.12-6.41,5.28-7.58.91-.33,1.85-.5,2.81-.5,2.37,0,4.61,1.03,6.14,2.82l78.52,91.57c2.61,3.05,2.61,7.48,0,10.53l-78.52,91.61c-1.54,1.79-3.78,2.82-6.14,2.82Z"/>
      <g>
        <path class="cls-1" d="M339.35,199.35c-.96,0-1.91-.17-2.81-.5-3.16-1.17-5.28-4.21-5.28-7.58v-31.88h-168.71c-4.46,0-8.09-3.63-8.09-8.09s3.63-8.09,8.09-8.09h176.8c4.46,0,8.09,3.63,8.09,8.09v18.12l59.82-69.76-59.82-69.73v18.12c0,4.46-3.63,8.09-8.09,8.09h-176.8c-4.46,0-8.09-3.63-8.09-8.09s3.63-8.09,8.09-8.09h168.71V8.09c0-3.37,2.12-6.42,5.28-7.58.9-.33,1.84-.5,2.8-.5,2.36,0,4.6,1.03,6.14,2.82l78.56,91.57c2.62,3.05,2.62,7.48,0,10.53l-78.56,91.61c-1.54,1.79-3.77,2.82-6.14,2.82Z"/>
        <path class="cls-1" d="M55.55,159.37c-4.46,0-8.09-3.63-8.09-8.09s3.63-8.09,8.09-8.09h67.16c4.46,0,8.09,3.63,8.09,8.09s-3.63,8.09-8.09,8.09H55.55Z"/>
      </g>
      <g>
        <path class="cls-1" d="M196.46,228.16c-4.46,0-8.09-3.63-8.09-8.09s3.63-8.09,8.09-8.09h103.48c4.46,0,8.09,3.63,8.09,8.09s-3.63,8.09-8.09,8.09h-103.48Z"/>
        <path class="cls-1" d="M440.54,371.37c-.96,0-1.9-.17-2.8-.5-3.17-1.17-5.29-4.22-5.29-7.59v-31.92h-115.53c-4.46,0-8.09-3.63-8.09-8.09s3.63-8.09,8.09-8.09h123.62c4.46,0,8.09,3.63,8.09,8.09v18.16l59.82-69.76-59.82-69.73v18.13c0,4.46-3.63,8.09-8.09,8.09h-73.95c-4.46,0-8.09-3.63-8.09-8.09s3.63-8.09,8.09-8.09h65.86v-31.88c0-3.37,2.12-6.42,5.28-7.58.9-.33,1.84-.5,2.8-.5,2.36,0,4.6,1.03,6.14,2.82l78.56,91.57c2.62,3.05,2.62,7.48,0,10.53l-78.56,91.61c-1.54,1.79-3.77,2.82-6.14,2.82Z"/>
        <path class="cls-1" d="M114.95,228.17c-4.46,0-8.09-3.63-8.09-8.09s3.63-8.09,8.09-8.09h39.85c4.46,0,8.09,3.63,8.09,8.09s-3.63,8.09-8.09,8.09h-39.85Z"/>
      </g>
      <path class="cls-1" d="M8.09,296.97c-4.46,0-8.09-3.63-8.09-8.09s3.63-8.09,8.09-8.09h116.97c4.46,0,8.09,3.63,8.09,8.09s-3.63,8.09-8.09,8.09H8.09Z"/>
    </g>
  </g>
</svg>