<?xml version="1.0" encoding="UTF-8"?>
<svg id="Layer_2" data-name="Layer 2" xmlns="http://www.w3.org/2000/svg" viewBox="0 0 527.83 527.83">
  <defs>
    <style>
      .cls-1 {
        fill: #000;
        stroke-width: 0px;
      }
    </style>
  </defs>
  <g id="_ëîé_1" data-name="‘ëîé_1">
    <g>
      <path class="cls-1" d="M45.95,234.47c.45.08.92.12,1.39.12,3.99,0,7.38-2.86,8.06-6.8,15.14-87.97,84.42-157.24,172.38-172.38,2.16-.37,4.04-1.56,5.3-3.35s1.75-3.96,1.38-6.11c-.68-3.94-4.07-6.79-8.07-6.79-.46,0-.92.04-1.39.12C130.23,55.58,55.58,130.22,39.27,225.01c-.37,2.16.12,4.33,1.38,6.11s3.14,2.98,5.3,3.35Z"/>
      <path class="cls-1" d="M481.9,293.38c-.46-.08-.93-.12-1.39-.12-3.99,0-7.38,2.86-8.06,6.8-15.14,87.97-84.42,157.24-172.38,172.38-2.16.37-4.04,1.56-5.3,3.35s-1.75,3.96-1.38,6.11c.68,3.94,4.07,6.8,8.06,6.8.47,0,.94-.04,1.4-.12,94.78-16.31,169.42-90.96,185.74-185.74.37-2.15-.12-4.33-1.38-6.11-1.26-1.79-3.14-2.98-5.3-3.35Z"/>
      <path class="cls-1" d="M227.78,472.44c-87.96-15.14-157.24-84.42-172.38-172.38-.68-3.94-4.07-6.8-8.06-6.8-.47,0-.93.04-1.39.12-2.16.37-4.04,1.56-5.3,3.35-1.26,1.79-1.75,3.96-1.38,6.11,16.31,94.78,90.96,169.42,185.74,185.74.45.08.92.12,1.39.12,3.99,0,7.38-2.86,8.06-6.79.37-2.16-.12-4.33-1.38-6.11s-3.14-2.98-5.3-3.35Z"/>
      <path class="cls-1" d="M300.06,55.4c87.97,15.14,157.24,84.42,172.38,172.38.68,3.94,4.07,6.8,8.06,6.8.47,0,.94-.04,1.4-.12,4.45-.77,7.44-5.01,6.68-9.46-16.32-94.78-90.96-169.43-185.75-185.74-.45-.08-.92-.12-1.37-.12-4,0-7.4,2.86-8.07,6.79-.37,2.16.12,4.33,1.38,6.11s3.14,2.98,5.3,3.35Z"/>
      <path class="cls-1" d="M263.92,75.16c4.51,0,8.19-3.67,8.19-8.19V8.19c0-4.51-3.67-8.19-8.19-8.19s-8.19,3.67-8.19,8.19v58.79c0,4.51,3.67,8.19,8.19,8.19Z"/>
      <path class="cls-1" d="M263.92,452.67c-4.51,0-8.19,3.67-8.19,8.19v58.79c0,4.51,3.67,8.19,8.19,8.19s8.19-3.67,8.19-8.19v-58.79c0-4.51-3.67-8.19-8.19-8.19Z"/>
      <path class="cls-1" d="M75.16,263.92c0-4.51-3.67-8.19-8.19-8.19H8.19c-4.51,0-8.19,3.67-8.19,8.19s3.67,8.19,8.19,8.19h58.79c4.51,0,8.19-3.67,8.19-8.19Z"/>
      <path class="cls-1" d="M519.65,255.73h-58.79c-4.51,0-8.19,3.67-8.19,8.19s3.67,8.19,8.19,8.19h58.79c4.51,0,8.19-3.67,8.19-8.19s-3.67-8.19-8.19-8.19Z"/>
      <path class="cls-1" d="M405.22,201.57c0-8.95-3.49-17.37-9.82-23.7l-15.92-15.92c-6.32-6.32-14.74-9.8-23.7-9.8s-17.38,3.48-23.7,9.8l-101.01,101.01-35.34-35.34c-6.33-6.33-14.75-9.82-23.7-9.82s-17.37,3.49-23.7,9.82l-15.92,15.92c-13.06,13.07-13.06,34.33,0,47.4l74.96,74.96c6.33,6.33,14.75,9.82,23.7,9.82s17.37-3.49,23.7-9.82l140.62-140.63c6.33-6.33,9.82-14.74,9.82-23.7ZM383.83,213.69l-140.62,140.63c-3.24,3.24-7.54,5.02-12.12,5.02s-8.88-1.78-12.12-5.02l-74.96-74.96c-6.68-6.68-6.68-17.56,0-24.24l15.92-15.92c3.24-3.24,7.54-5.02,12.12-5.02s8.88,1.78,12.12,5.02l41.13,41.12c1.55,1.55,3.6,2.4,5.79,2.4s4.24-.85,5.79-2.4l106.79-106.79c3.23-3.23,7.53-5.01,12.12-5.01s8.89,1.78,12.12,5.01l15.92,15.92c3.24,3.24,5.02,7.54,5.02,12.12s-1.78,8.88-5.02,12.12Z"/>
    </g>
  </g>
</svg>