<?xml version="1.0" encoding="UTF-8"?>
<svg id="Layer_2" data-name="Layer 2" xmlns="http://www.w3.org/2000/svg" viewBox="0 0 446.08 446.1">
  <defs>
    <style>
      .cls-1 {
        fill: #fff;
        stroke-width: 0px;
      }
    </style>
  </defs>
  <g id="_ëîé_1" data-name="‘ëîé_1">
    <g>
      <path class="cls-1" d="M223.03,0C101.54,0,1.49,98.81.02,220.27c-.05,4.28,3.39,7.81,7.77,7.86,4.23,0,7.72-3.44,7.77-7.68C16.93,107.47,110,15.54,223.03,15.54s207.5,93.08,207.5,207.5c0,100.24-71.45,186.07-169.9,204.08-4.21.77-7.01,4.83-6.24,9.05.68,3.69,3.89,6.37,7.64,6.37.47,0,.95-.04,1.41-.13,105.83-19.37,182.64-111.63,182.64-219.38C446.08,100.06,346.02,0,223.03,0Z"/>
      <path class="cls-1" d="M131.48,77.28c1.4,0,2.78-.38,3.99-1.1,20.82-12.47,43.56-20.21,67.59-23.01,4.26-.5,7.32-4.36,6.82-8.62-.46-3.92-3.78-6.87-7.72-6.87-.29,0-.59.02-.91.05-26.24,3.06-51.06,11.51-73.78,25.11-1.78,1.07-3.04,2.76-3.54,4.78s-.2,4.1.87,5.88c1.4,2.33,3.95,3.78,6.67,3.78Z"/>
      <path class="cls-1" d="M399.2,200.1c.44,0,.89-.04,1.33-.12,2.04-.35,3.83-1.48,5.03-3.18,1.2-1.7,1.66-3.76,1.3-5.8-3.5-20.23-10.34-39.67-20.3-57.76-1.36-2.48-3.97-4.03-6.81-4.03-1.3,0-2.6.33-3.75.97-1.82,1-3.14,2.65-3.71,4.65-.58,1.99-.34,4.09.66,5.91,9.14,16.6,15.4,34.4,18.6,52.92.65,3.74,3.86,6.45,7.65,6.45Z"/>
      <path class="cls-1" d="M374.28,318.98c1.18.69,2.53,1.05,3.9,1.05,2.77,0,5.34-1.49,6.73-3.88,15.92-27.49,24.46-58.39,24.69-89.37.03-4.28-3.43-7.8-7.79-7.83-4.32,0-7.73,3.39-7.76,7.71-.22,28.29-8.03,56.54-22.6,81.7-2.15,3.71-.88,8.47,2.83,10.62Z"/>
      <path class="cls-1" d="M354.3,113.5c1.48,1.77,3.65,2.79,5.96,2.79,1.82,0,3.59-.64,4.98-1.81,1.59-1.33,2.57-3.21,2.76-5.27.18-2.07-.45-4.08-1.78-5.68-32.23-38.55-79.26-62.8-129-66.52-.21-.02-.43-.03-.64-.03-4.02,0-7.41,3.16-7.72,7.19-.32,4.28,2.9,8.01,7.17,8.33,45.6,3.42,88.71,25.65,118.26,61Z"/>
      <path class="cls-1" d="M70.45,129.57c1.29.87,2.8,1.33,4.35,1.33,2.58,0,4.99-1.28,6.44-3.42,7.89-11.66,17.19-22.33,27.65-31.71,3.19-2.86,3.46-7.79.6-10.98-1.47-1.64-3.58-2.58-5.79-2.58-1.92,0-3.76.71-5.19,1.99-11.4,10.22-21.54,21.85-30.15,34.57-1.17,1.72-1.59,3.79-1.2,5.83.39,2.04,1.56,3.8,3.28,4.96Z"/>
      <path class="cls-1" d="M264.95,301.43c0-32.22-26.21-58.43-58.43-58.43h-26.79c17.33-29.22,13.6-60.31,8.89-73.3-3.82-12.77-16.17-26.51-29.52-26.51-.28,0-.56,0-.85.02-7.93.36-18.3,5.42-22.71,27.5l-.03.15c-5.38,36.26-36.6,72.79-41.74,78.6-6.68,3.42-12.54,8.04-17.37,13.54-4.76-11.2-15.87-19.07-28.79-19.07h-16.33c-17.24,0-31.27,14.03-31.27,31.27v137.7c0,17.24,14.03,31.27,31.27,31.27h16.33c12.64,0,23.55-7.55,28.47-18.37,10.82,12.58,26.77,20.3,44.21,20.3h62c35.03,0,64.33-25.13,69.67-59.75l12.91-83.74c.06-.39.09-.79.09-1.19ZM63.33,412.89c0,8.67-7.05,15.72-15.73,15.72h-16.33c-8.67,0-15.72-7.05-15.72-15.72v-137.7c0-8.67,7.05-15.73,15.72-15.73h16.33c8.67,0,15.72,7.05,15.72,15.72v137.71ZM236.59,383.98c-4.16,26.99-27,46.57-54.3,46.57h-62c-19.29,0-36.23-13-41.33-31.66l-.03-108.69c3.29-11.93,11.92-22.2,23.17-27.52,1.25-.6,2.31-1.51,3.08-2.65,6.95-7.72,39.59-45.84,45.66-86.58,1.8-8.93,4.91-14.57,8.11-14.71h.15c4.53,0,12.23,7.27,14.75,15.75l.05.17c.13.38,13.05,37.84-15.16,71.09-1.95,2.3-2.39,5.55-1.12,8.29,1.27,2.74,4.04,4.5,7.05,4.5h41.86c23.39,0,42.58,18.96,42.89,42.32l-12.82,83.13Z"/>
    </g>
  </g>
</svg>