<?xml version="1.0" encoding="UTF-8"?>
<svg id="Layer_2" data-name="Layer 2" xmlns="http://www.w3.org/2000/svg" viewBox="0 0 467.75 486.19">
  <defs>
    <style>
      .cls-1 {
        fill: #fff;
        stroke-width: 0px;
      }
    </style>
  </defs>
  <g id="_ëîé_1" data-name="‘ëîé_1">
    <g>
      <path class="cls-1" d="M431.22,308.93c-1.04-.46-2.14-.69-3.26-.69-3.17,0-6.05,1.87-7.34,4.76-1.8,4.04.02,8.8,4.07,10.61,17.16,7.65,27,16.18,27,23.41,0,11.36-23.62,24.99-60.18,34.71-42,11.17-97.98,17.32-157.62,17.32-37.06,0-73.76-2.47-106.11-7.13-.39-.06-.79-.09-1.19-.09-3.96,0-7.37,2.96-7.93,6.89-.63,4.39,2.42,8.47,6.81,9.1,33.12,4.78,70.62,7.3,108.43,7.3,60.99,0,118.44-6.34,161.75-17.86,19.67-5.23,41.6-12.99,56.05-23.87v44.68c0,11.36-23.62,24.98-60.18,34.71-42,11.17-97.98,17.33-157.62,17.33s-115.62-6.15-157.62-17.33c-36.56-9.72-60.18-23.35-60.18-34.71v-71.05c0-7.23,9.84-15.76,27-23.42,4.04-1.81,5.86-6.57,4.06-10.61-1.29-2.89-4.17-4.76-7.34-4.76-1.13,0-2.23.23-3.27.7C12.29,319.75,0,332.56,0,347.03v71.05c0,25.67,39.22,41.49,72.13,50.24,43.31,11.52,100.76,17.87,161.75,17.87s118.44-6.34,161.75-17.87c32.9-8.75,72.13-24.57,72.13-50.24v-71.05c0-14.47-12.29-27.28-36.53-38.1Z"/>
      <path class="cls-1" d="M90.11,385.11c-16.71-3.75-31.14-8.1-42.89-12.93-.97-.4-1.99-.6-3.04-.6-3.27,0-6.19,1.95-7.44,4.98-1.68,4.09.28,8.8,4.38,10.49,12.6,5.17,27.9,9.8,45.49,13.74.58.13,1.17.19,1.75.19,3.73,0,7.03-2.64,7.84-6.28.97-4.32-1.76-8.63-6.08-9.6Z"/>
      <path class="cls-1" d="M96.24,346.26c1.5,1.41,3.46,2.19,5.51,2.19,2.2,0,4.33-.92,5.84-2.52,1.47-1.56,2.25-3.6,2.19-5.75-.06-2.15-.96-4.14-2.52-5.61-37.28-35.16-57.81-82.78-57.81-134.07,0-101.69,82.73-184.43,184.43-184.43s184.43,82.73,184.43,184.43c0,51.3-20.53,98.91-57.82,134.07-1.56,1.47-2.46,3.47-2.52,5.61-.06,2.15.71,4.19,2.19,5.75,1.51,1.6,3.64,2.52,5.85,2.52,2.06,0,4.02-.78,5.51-2.19,40.54-38.22,62.86-89.99,62.86-145.76C434.38,89.94,344.43,0,233.88,0S33.38,89.94,33.38,200.5c0,55.77,22.32,107.53,62.86,145.76Z"/>
      <path class="cls-1" d="M119.28,321.83c1.5,1.41,3.46,2.18,5.51,2.18,2.21,0,4.34-.92,5.85-2.52,3.04-3.23,2.89-8.32-.34-11.36-21.45-20.22-36.36-45.86-43.13-74.15-.87-3.63-4.08-6.17-7.81-6.17-.63,0-1.26.08-1.88.22-2.09.5-3.86,1.78-4.98,3.61-1.12,1.83-1.47,3.99-.97,6.07,7.49,31.35,24,59.74,47.74,82.12Z"/>
      <path class="cls-1" d="M89.79,133.16c1.15.61,2.46.94,3.77.94,2.98,0,5.71-1.64,7.1-4.27,6.19-11.67,14-22.57,23.21-32.39,3.03-3.23,2.87-8.32-.37-11.36-1.49-1.4-3.45-2.17-5.49-2.17-2.21,0-4.35.93-5.86,2.54-10.18,10.86-18.82,22.92-25.68,35.84-2.07,3.91-.58,8.79,3.33,10.86Z"/>
      <path class="cls-1" d="M399.99,216.85c.55-5.26.81-10.6.81-16.35,0-68.28-42.82-130.81-106.55-155.6-.94-.37-1.92-.55-2.92-.55-3.29,0-6.3,2.06-7.49,5.13-.78,2-.73,4.18.13,6.15.86,1.96,2.44,3.47,4.44,4.25,57.61,22.41,96.31,78.92,96.31,140.62,0,5.21-.24,10.01-.73,14.68-.46,4.4,2.75,8.37,7.19,8.83.27.03.54.04.81.04,4.12,0,7.56-3.09,7.99-7.2Z"/>
      <path class="cls-1" d="M342.97,324.01c2.06,0,4.03-.78,5.54-2.21,2.79-2.65,5.49-5.38,8.02-8.13,1.46-1.58,2.21-3.63,2.13-5.77-.09-2.14-1-4.13-2.58-5.59-1.49-1.37-3.42-2.13-5.45-2.13-2.24,0-4.39.94-5.9,2.58-2.28,2.47-4.73,4.95-7.29,7.38-3.21,3.05-3.34,8.15-.29,11.36,1.51,1.59,3.63,2.5,5.83,2.5Z"/>
      <path class="cls-1" d="M387.33,242.94c-.82-.27-1.67-.41-2.52-.41-3.48,0-6.55,2.22-7.63,5.51-3.23,9.76-7.46,19.15-12.57,27.92-2.23,3.83-.93,8.76,2.9,10.99,1.23.71,2.63,1.09,4.04,1.09,2.85,0,5.51-1.53,6.95-3.99,5.68-9.74,10.37-20.16,13.95-30.97.67-2.04.52-4.22-.45-6.14-.96-1.92-2.62-3.35-4.66-4.02Z"/>
      <path class="cls-1" d="M144.5,77.25c1.62,0,3.18-.48,4.53-1.4,25.11-17.14,54.45-26.21,84.85-26.21,7.58,0,15.16.57,22.56,1.69.38.05.77.08,1.15.08,3.95,0,7.38-2.93,7.98-6.83.66-4.38-2.36-8.49-6.74-9.15-8.18-1.24-16.58-1.87-24.94-1.87-33.65,0-66.12,10.03-93.91,29-3.66,2.5-4.6,7.51-2.11,11.17,1.5,2.19,3.98,3.5,6.64,3.5Z"/>
      <path class="cls-1" d="M80.59,150.62c-3.61,0-6.79,2.43-7.74,5.91-3.91,14.25-5.89,29.04-5.89,43.97,0,.89,0,1.77.04,2.66.18,4.32,3.71,7.7,8.03,7.7.11,0,.23,0,.34,0,2.15-.09,4.13-1.01,5.58-2.59,1.45-1.58,2.2-3.63,2.11-5.78-.03-.66-.03-1.32-.03-1.98,0-13.49,1.79-26.85,5.32-39.71.57-2.07.3-4.24-.76-6.11-1.06-1.87-2.79-3.21-4.84-3.77-.7-.2-1.43-.3-2.15-.3Z"/>
      <path class="cls-1" d="M138.79,232.18l64.72,64.72c3.47,3.47,8.08,5.38,12.98,5.38s9.51-1.91,12.98-5.38l111.94-111.93c3.47-3.47,5.38-8.08,5.38-12.99s-1.91-9.52-5.38-12.98l-16.18-16.18c-3.46-3.46-8.08-5.37-12.98-5.37s-9.52,1.91-12.98,5.37l-82.77,82.77-35.56-35.55c-3.46-3.46-8.07-5.37-12.98-5.37s-9.52,1.91-12.98,5.37l-16.18,16.18c-3.47,3.47-5.38,8.08-5.38,12.98s1.91,9.52,5.38,12.98ZM150.16,217.58l16.18-16.18c.44-.44,1-.67,1.62-.67s1.18.23,1.62.67l41.24,41.24c1.52,1.52,3.54,2.35,5.68,2.35s4.16-.83,5.68-2.35l88.45-88.45c.43-.43,1.01-.67,1.62-.67s1.19.24,1.62.67l16.18,16.18c.44.44.67,1,.67,1.62s-.23,1.18-.67,1.62l-111.93,111.93c-.43.43-1.01.67-1.63.67s-1.19-.24-1.62-.67l-64.72-64.72c-.44-.43-.67-.99-.67-1.61s.23-1.18.67-1.62Z"/>
    </g>
  </g>
</svg>