<?xml version="1.0" encoding="UTF-8"?>
<svg id="Layer_2" data-name="Layer 2" xmlns="http://www.w3.org/2000/svg" viewBox="0 0 434.06 512.94">
  <defs>
    <style>
      .cls-1 {
        fill: #fff;
        stroke-width: 0px;
      }
    </style>
  </defs>
  <g id="_ëîé_1" data-name="‘ëîé_1">
    <g>
      <path class="cls-1" d="M428.08,190.47l-31.99-40.87,1.86-51.87c.47-12.93-7.9-24.45-20.35-28.01l-49.91-14.26-28.98-43.06c-5.23-7.77-13.93-12.41-23.27-12.41-3.29,0-6.54.58-9.65,1.71l-48.75,17.8L168.27,1.71C165.16.58,161.92,0,158.62,0c-9.34,0-18.04,4.64-23.27,12.41l-28.98,43.06-49.91,14.26c-12.45,3.56-20.81,15.08-20.35,28.01l1.86,51.87-32,40.87c-7.98,10.19-7.98,24.43,0,34.62l32,40.87-1.86,51.87c-.47,12.93,7.9,24.45,20.35,28.01l49.91,14.26,7.87,11.7-23.42,108.16c-.55,2.55.21,5.2,2.02,7.06,1.45,1.5,3.48,2.36,5.56,2.36.49,0,.99-.05,1.45-.14l78.97-14.89,71,37.69c1.12.6,2.38.91,3.65.91s2.58-.33,3.7-.94c2.29-1.24,3.81-3.54,4.04-6.14l6.01-67.49c.38-4.27-2.78-8.05-7.04-8.43-.24-.02-.49-.04-.73-.04-3.98,0-7.37,3.11-7.72,7.08l-4.97,55.83-63.07-33.47c-1.12-.59-2.38-.91-3.65-.91-.48,0-.96.04-1.44.13l-70.14,13.22,17.78-82.12,9.08,13.48c5.23,7.77,13.93,12.41,23.27,12.41,3.29,0,6.54-.58,9.65-1.71l48.75-17.8,40.58,14.82,68.04,76.32c1.48,1.65,3.59,2.6,5.8,2.6.51,0,1.02-.05,1.53-.15,2.7-.54,4.93-2.5,5.82-5.1l18.42-53.7,54.25-16.84c2.63-.81,4.65-2.99,5.27-5.66.62-2.68-.23-5.52-2.23-7.41l-35.93-33.96c-1.45-1.37-3.34-2.12-5.34-2.12-2.13,0-4.19.89-5.65,2.43-1.43,1.51-2.18,3.48-2.12,5.56.06,2.08.92,4,2.43,5.43l26.27,24.83-45.32,14.07c-2.36.73-4.25,2.57-5.05,4.9l-15.38,44.86-46.47-52.13c6.77-1.61,12.78-5.71,16.77-11.64l28.98-43.06,49.91-14.26c12.45-3.56,20.81-15.08,20.35-28.01l-1.86-51.87,31.99-40.87c7.98-10.19,7.98-24.43,0-34.62ZM415.84,215.51l-33.74,43.1c-1.13,1.44-1.72,3.24-1.65,5.07l1.97,54.71c.21,5.77-3.53,10.91-9.08,12.5l-52.64,15.04c-1.76.5-3.29,1.62-4.31,3.13l-30.57,45.41c-2.34,3.47-6.22,5.54-10.39,5.54-1.47,0-2.92-.26-4.31-.76l-51.42-18.77c-.86-.31-1.75-.47-2.67-.47s-1.81.16-2.67.47l-51.42,18.77c-1.39.51-2.84.77-4.31.77-4.17,0-8.05-2.07-10.39-5.54l-19.14-28.43c-.04-.07-.09-.13-.13-.19l-11.3-16.79c-1.02-1.52-2.55-2.63-4.31-3.14l-52.64-15.04c-5.56-1.59-9.29-6.73-9.08-12.5l1.96-54.71c.07-1.83-.52-3.63-1.65-5.07l-33.74-43.1c-3.56-4.55-3.56-10.91,0-15.45l33.74-43.1c1.13-1.44,1.71-3.24,1.65-5.07l-1.96-54.71c-.21-5.77,3.53-10.92,9.08-12.5l52.64-15.04c1.76-.5,3.29-1.62,4.31-3.13l30.57-45.41c2.34-3.47,6.22-5.54,10.39-5.54,1.47,0,2.92.26,4.31.77l51.42,18.77c.86.31,1.75.47,2.67.47s1.81-.16,2.67-.47l51.42-18.77c1.39-.51,2.84-.76,4.31-.76,4.17,0,8.05,2.07,10.39,5.54l30.57,45.41c1.02,1.52,2.55,2.63,4.31,3.13l52.64,15.04c5.56,1.59,9.29,6.73,9.08,12.5l-1.97,54.7c-.07,1.83.52,3.63,1.65,5.07l33.74,43.1c3.56,4.55,3.56,10.91,0,15.45Z"/>
      <path class="cls-1" d="M217.03,89.8c-65.06,0-117.98,52.93-117.98,117.98s52.93,117.98,117.98,117.98,117.99-52.93,117.99-117.98-52.93-117.98-117.99-117.98ZM217.03,310.22c-56.49,0-102.44-45.95-102.44-102.44s45.95-102.44,102.44-102.44,102.44,45.95,102.44,102.44-45.96,102.44-102.44,102.44Z"/>
      <path class="cls-1" d="M267.36,166.66c-2.08,0-4.03.81-5.5,2.28l-61.21,61.21-28.46-28.46c-1.47-1.47-3.42-2.28-5.5-2.28s-4.03.81-5.49,2.28c-1.47,1.47-2.28,3.42-2.28,5.5s.81,4.03,2.28,5.5l33.96,33.96c1.47,1.47,3.42,2.28,5.49,2.28s4.03-.81,5.5-2.28l66.71-66.71c1.47-1.47,2.28-3.42,2.28-5.5s-.81-4.03-2.28-5.5c-1.47-1.47-3.42-2.28-5.5-2.28Z"/>
    </g>
  </g>
</svg>