<?xml version="1.0" encoding="UTF-8"?>
<svg id="Layer_2" data-name="Layer 2" xmlns="http://www.w3.org/2000/svg" viewBox="0 0 487.25 442.88">
  <defs>
    <style>
      .cls-1 {
        fill: #fff;
        stroke-width: 0px;
      }
    </style>
  </defs>
  <g id="_ëîé_1" data-name="‘ëîé_1">
    <g>
      <path class="cls-1" d="M125.99,38c1.2,0,2.4-.29,3.47-.82,28.7-14.35,59.64-21.63,91.97-21.63,4.29,0,7.77-3.49,7.77-7.77s-3.49-7.77-7.77-7.77c-34.77,0-68.05,7.83-98.93,23.27-3.83,1.92-5.39,6.59-3.47,10.43,1.33,2.65,3.99,4.3,6.95,4.3Z"/>
      <path class="cls-1" d="M75.34,73.3c1.98,0,3.87-.75,5.31-2.1,5.61-5.26,11.59-10.26,17.76-14.87,1.66-1.24,2.75-3.06,3.04-5.11.3-2.06-.22-4.1-1.46-5.76-1.46-1.96-3.79-3.13-6.23-3.13-1.69,0-3.29.53-4.65,1.54-6.63,4.95-13.05,10.33-19.09,15.99-1.51,1.42-2.39,3.34-2.45,5.42-.07,2.08.68,4.05,2.1,5.57,1.46,1.56,3.53,2.46,5.67,2.46Z"/>
      <path class="cls-1" d="M221.44,427.33c-113.53,0-205.89-92.36-205.89-205.89,0-45.36,14.46-88.37,41.81-124.39,2.59-3.41,1.92-8.3-1.5-10.89-1.36-1.03-2.99-1.58-4.69-1.58-2.45,0-4.71,1.12-6.19,3.07C15.55,126.4,0,172.66,0,221.44c0,122.1,99.34,221.44,221.44,221.44,4.29,0,7.77-3.49,7.77-7.77s-3.49-7.77-7.77-7.77Z"/>
      <path class="cls-1" d="M114.59,98.27c1.79,0,3.53-.62,4.92-1.76,13.26-10.84,28.04-19.45,43.92-25.59,1.94-.75,3.46-2.21,4.3-4.1.84-1.9.89-4.01.14-5.95-1.15-2.97-4.06-4.97-7.25-4.97-.96,0-1.91.18-2.8.53-17.42,6.74-33.62,16.18-48.15,28.06-1.61,1.31-2.61,3.18-2.81,5.24-.21,2.07.4,4.09,1.71,5.69,1.48,1.81,3.68,2.86,6.02,2.86Z"/>
      <path class="cls-1" d="M86.63,128.71c-.44-2.03-1.65-3.76-3.39-4.88-1.25-.81-2.7-1.23-4.19-1.23-2.66,0-5.11,1.34-6.55,3.57-18.26,28.45-27.91,61.39-27.91,95.27,0,67.79,37.86,128.59,98.81,158.68,1.07.53,2.25.8,3.43.8,2.98,0,5.65-1.66,6.97-4.33,1.9-3.84.32-8.51-3.53-10.41-55.6-27.45-90.14-82.91-90.14-144.74,0-30.89,8.8-60.93,25.44-86.87,1.12-1.75,1.5-3.83,1.05-5.85Z"/>
      <path class="cls-1" d="M482.17,177.61c-3.28-3.26-7.51-5-12.25-5.02l-39.23.2-14.11-33.89,27.62-27.84c3.24-3.3,5-7.65,4.95-12.25-.05-4.58-1.87-8.85-5.12-12.01l-44.34-43.86c-3.23-3.2-7.52-4.97-12.08-4.97s-8.96,1.81-12.21,5.09l-27.64,27.97-33.92-13.98-.22-39.2c0-9.46-7.68-17.16-17.13-17.16h-30.63c-4.29,0-7.77,3.49-7.77,7.77s3.49,7.77,7.77,7.77h30.63c.87,0,1.58.74,1.58,1.66l.25,44.41c.02,3.14,1.91,5.94,4.81,7.14l43.52,17.94c.94.39,1.94.59,2.96.59,2.07,0,4.08-.84,5.53-2.31l31.29-31.67c.31-.31.72-.48,1.17-.48s.84.17,1.15.47l44.38,43.91c.3.3.46.67.47,1.09,0,.44-.17.86-.47,1.17l-31.24,31.49c-2.22,2.23-2.87,5.55-1.66,8.46l18.1,43.49c1.21,2.91,4.03,4.79,7.21,4.79l44.46-.22c.45,0,.87.17,1.19.5.32.32.49.71.49,1.15v63.27c0,.43-.17.83-.49,1.15-.48.47-.74.51-.95.51-.02,0-.16,0-.16,0l-44.63-.22c-3.25.07-5.92,1.86-7.13,4.78l-18.1,43.49c-1.21,2.91-.56,6.23,1.66,8.46l31.21,31.43c.33.33.5.75.49,1.21,0,.44-.17.82-.51,1.15l-44.36,43.88c-.4.4-.88.46-1.13.46-.45,0-.86-.17-1.16-.47l-31.3-31.68c-1.47-1.49-3.44-2.31-5.53-2.31-1.02,0-2.02.2-2.97.59l-43.52,17.97c-2.9,1.2-4.79,4-4.8,7.14l-.25,44.42c0,.91-.71,1.64-1.58,1.64h-30.63c-4.29,0-7.77,3.49-7.77,7.77s3.49,7.77,7.77,7.77h30.63c9.44,0,17.13-7.7,17.13-17.14l.22-39.21,33.92-14.01,27.67,28.01c3.25,3.25,7.58,5.04,12.19,5.04s8.85-1.76,12.06-4.95l44.3-43.83c3.28-3.2,5.11-7.48,5.16-12.07.05-4.62-1.71-8.98-4.97-12.3l-27.59-27.78,14.11-33.89,39.33.2c4.58,0,8.89-1.78,12.15-5.02,3.27-3.25,5.08-7.57,5.08-12.17v-63.27c0-4.59-1.8-8.92-5.07-12.17Z"/>
      <path class="cls-1" d="M301.12,313.17c-.75,1.94-.7,4.05.14,5.95,1.24,2.82,4.04,4.64,7.11,4.64,1.08,0,2.14-.22,3.13-.66,13.6-6,25.7-14.53,35.96-25.36,1.43-1.51,2.18-3.48,2.13-5.55s-.92-4-2.42-5.43c-1.45-1.38-3.35-2.13-5.35-2.13-2.12,0-4.18.88-5.64,2.42-8.84,9.32-19.26,16.67-30.96,21.83-1.9.84-3.36,2.37-4.11,4.3Z"/>
      <path class="cls-1" d="M357.97,270.71c1.02.46,2.09.69,3.19.69,3.05,0,5.83-1.8,7.09-4.58,6.45-14.29,9.76-29.56,9.83-45.42-.17-38.64-19.9-73.92-52.79-94.37-1.23-.77-2.65-1.17-4.1-1.17-2.71,0-5.18,1.37-6.61,3.67-1.1,1.76-1.44,3.85-.97,5.87.47,2.02,1.7,3.74,3.47,4.83,28.32,17.61,45.31,47.96,45.45,81.17-.06,13.6-2.91,26.73-8.45,39.02-1.76,3.91-.02,8.52,3.89,10.28Z"/>
      <path class="cls-1" d="M295.81,256.91c0-23.84-23.41-43.24-52.19-43.24-20.21,0-36.65-12.43-36.65-27.7s16.44-27.7,36.65-27.7,36.65,12.42,36.65,27.7c0,4.29,3.49,7.77,7.77,7.77s7.77-3.49,7.77-7.77c0-21.65-19.31-39.64-44.42-42.76v-11.53c0-4.29-3.49-7.77-7.77-7.77s-7.77,3.49-7.77,7.77v11.53c-25.1,3.12-44.42,21.1-44.42,42.76,0,23.84,23.41,43.24,52.19,43.24,20.21,0,36.65,12.43,36.65,27.7s-16.44,27.7-36.65,27.7-36.65-12.42-36.65-27.7c0-4.29-3.49-7.77-7.77-7.77s-7.77,3.49-7.77,7.77c0,21.66,19.31,39.64,44.42,42.76v11.53c0,4.29,3.49,7.77,7.77,7.77s7.77-3.49,7.77-7.77v-11.53c25.1-3.12,44.42-21.1,44.42-42.76Z"/>
    </g>
  </g>
</svg>