<?xml version="1.0" encoding="UTF-8"?>
<svg id="Layer_2" data-name="Layer 2" xmlns="http://www.w3.org/2000/svg" viewBox="0 0 458.93 427.5">
  <defs>
    <style>
      .cls-1 {
        fill: #fff;
        stroke-width: 0px;
      }
    </style>
  </defs>
  <g id="_ëîé_1" data-name="‘ëîé_1">
    <g>
      <path class="cls-1" d="M64.01,362.19H16.07V96.67h72.56c4.43,0,8.04-3.61,8.04-8.04V16.08h213.47v175.09c0,4.43,3.61,8.04,8.04,8.04s8.04-3.61,8.04-8.04V8.04C326.22,3.61,322.61,0,318.18,0H88.78s-.09,0-.14,0c-2.15,0-4.17.84-5.68,2.35L2.36,82.95c-.06.06-.1.13-.16.19-.17.18-.33.37-.49.56-.09.12-.18.23-.26.35-.13.18-.24.37-.35.56-.1.18-.2.35-.28.54-.09.19-.18.39-.26.59-.05.13-.1.27-.15.4-.09.26-.16.53-.22.81-.01.05-.03.1-.04.15-.07.34-.11.69-.13,1.04,0,.05,0,.11,0,.16,0,.12-.02.23-.02.35v281.58c0,4.43,3.6,8.04,8.04,8.04h55.97c4.43,0,8.04-3.61,8.04-8.04s-3.6-8.04-8.04-8.04ZM27.46,80.59l53.14-53.14v53.14H27.46Z"/>
      <path class="cls-1" d="M160.32,226.27c1.52,1.52,3.54,2.35,5.68,2.35s4.16-.84,5.68-2.35l63.36-63.36v16.78c0,4.43,3.6,8.04,8.04,8.04s8.04-3.61,8.04-8.04v-36.18c0-.75-.11-1.47-.3-2.16-.01-.05-.02-.1-.04-.15-.05-.16-.11-.32-.17-.48-.03-.09-.06-.19-.1-.28-.05-.12-.11-.23-.16-.34-.06-.13-.12-.26-.19-.39-.04-.07-.08-.14-.13-.21-.09-.16-.18-.32-.29-.47-.02-.03-.04-.05-.06-.08-.27-.4-.58-.77-.93-1.12-1.1-1.1-2.45-1.83-3.93-2.16-.05-.01-.1-.03-.14-.04-.17-.03-.33-.05-.5-.08-.1-.01-.2-.03-.3-.04-.11-.01-.21-.01-.32-.02-.16,0-.32-.02-.49-.02h-36.18c-4.43,0-8.04,3.61-8.04,8.04s3.6,8.04,8.04,8.04h16.78l-57.68,57.68-33.93-33.93c-1.46-1.46-3.53-2.29-5.68-2.29s-4.22.84-5.68,2.29l-52.76,52.76c-3.13,3.13-3.13,8.23,0,11.37,1.52,1.52,3.54,2.35,5.68,2.35s4.16-.84,5.68-2.35l47.08-47.08,33.93,33.93Z"/>
      <path class="cls-1" d="M450.89,283.73h-32.42v-55.81c0-4.43-3.6-8.04-8.04-8.04h-156.79c-4.43,0-8.04,3.61-8.04,8.04v63.85c0,4.43,3.6,8.04,8.04,8.04h32.42v119.65c0,4.43,3.6,8.04,8.04,8.04h156.79c4.43,0,8.04-3.61,8.04-8.04v-127.69c0-4.43-3.6-8.04-8.04-8.04ZM261.68,235.96h140.72v47.77h-140.72v-47.77ZM410.43,299.81h32.42v47.77h-140.72v-47.77h108.29ZM442.86,411.42h-140.72v-47.77h140.72v47.77Z"/>
      <path class="cls-1" d="M253.65,347.58H96.86c-4.43,0-8.04,3.61-8.04,8.04v63.85c0,4.43,3.6,8.04,8.04,8.04h156.79c4.43,0,8.04-3.61,8.04-8.04v-63.85c0-4.43-3.6-8.04-8.04-8.04ZM245.61,411.42H104.89v-47.77h140.72v47.77Z"/>
    </g>
  </g>
</svg>