<?xml version="1.0" encoding="UTF-8"?>
<svg id="Layer_2" data-name="Layer 2" xmlns="http://www.w3.org/2000/svg" viewBox="0 0 465.27 471.51">
  <defs>
    <style>
      .cls-1 {
        fill: #fff;
        stroke-width: 0px;
      }
    </style>
  </defs>
  <g id="_ëîé_1" data-name="‘ëîé_1">
    <g>
      <path class="cls-1" d="M74.7,234.8H8.04c-4.43,0-8.04,3.61-8.04,8.04v96.64c0,4.43,3.6,8.04,8.04,8.04h66.66c4.43,0,8.04-3.61,8.04-8.04v-96.64c0-4.43-3.6-8.04-8.04-8.04ZM66.66,331.44H16.07v-80.56h50.59v80.56Z"/>
      <path class="cls-1" d="M183.31,138.17h-66.66c-4.43,0-8.04,3.61-8.04,8.04v193.27c0,4.43,3.61,8.04,8.04,8.04h66.66c4.43,0,8.04-3.61,8.04-8.04v-193.27c0-4.43-3.6-8.04-8.04-8.04ZM175.27,331.44h-50.59v-177.2h50.59v177.2Z"/>
      <path class="cls-1" d="M233.28,204.95h50.62v15.19c0,4.43,3.6,8.04,8.04,8.04s8.04-3.61,8.04-8.04v-23.22c0-4.43-3.6-8.04-8.04-8.04h-66.69c-4.43,0-8.04,3.61-8.04,8.04v79.7c0,4.43,3.6,8.04,8.04,8.04s8.04-3.61,8.04-8.04v-71.66Z"/>
      <path class="cls-1" d="M325.84,108.64v100.8c0,4.43,3.6,8.04,8.04,8.04s8.04-3.61,8.04-8.04v-92.76h50.58v101.63c0,4.43,3.6,8.04,8.04,8.04s8.04-3.61,8.04-8.04v-109.67c0-4.43-3.6-8.04-8.04-8.04h-66.65c-4.43,0-8.04,3.61-8.04,8.04Z"/>
      <path class="cls-1" d="M20.83,167.51c1.86,0,3.67-.65,5.11-1.83L153.94,60.18l95,54.45c1.22.7,2.6,1.06,4,1.06,1.73,0,3.37-.54,4.76-1.56L393.24,14.51c1.73-1.27,2.86-3.14,3.19-5.26.32-2.12-.2-4.24-1.47-5.97-1.51-2.05-3.93-3.28-6.48-3.28-1.72,0-3.37.54-4.75,1.56l-131.33,96.51-95.28-54.6c-1.22-.7-2.6-1.07-4-1.07-1.86,0-3.68.65-5.11,1.83L15.71,153.27c-1.66,1.37-2.68,3.29-2.89,5.43-.21,2.14.43,4.23,1.8,5.88,1.53,1.86,3.79,2.92,6.2,2.92Z"/>
      <path class="cls-1" d="M348.51,237.98c-64.38,0-116.76,52.38-116.76,116.76s52.38,116.76,116.76,116.76,116.76-52.38,116.76-116.76-52.38-116.76-116.76-116.76ZM348.51,455.43c-55.52,0-100.69-45.17-100.69-100.69s45.17-100.69,100.69-100.69,100.69,45.17,100.69,100.69-45.17,100.69-100.69,100.69Z"/>
      <path class="cls-1" d="M348.51,311.68c13.21,0,23.96,7.86,23.96,17.51,0,4.43,3.6,8.04,8.04,8.04s8.04-3.61,8.04-8.04c0-16.21-13.76-29.78-32-32.91v-6.2c0-4.43-3.6-8.04-8.04-8.04s-8.04,3.61-8.04,8.04v6.2c-18.24,3.13-32,16.7-32,32.91,0,18.52,17.96,33.59,40.03,33.59,13.21,0,23.96,7.86,23.96,17.51s-10.75,17.51-23.96,17.51-23.96-7.86-23.96-17.51c0-4.43-3.6-8.04-8.04-8.04s-8.04,3.61-8.04,8.04c0,16.21,13.76,29.78,32,32.91v6.2c0,4.43,3.6,8.04,8.04,8.04s8.04-3.61,8.04-8.04v-6.2c18.24-3.13,32-16.7,32-32.91,0-18.52-17.96-33.59-40.03-33.59-13.21,0-23.96-7.86-23.96-17.51s10.75-17.51,23.96-17.51Z"/>
    </g>
  </g>
</svg>