<?xml version="1.0" encoding="UTF-8"?>
<svg id="Layer_2" data-name="Layer 2" xmlns="http://www.w3.org/2000/svg" viewBox="0 0 378.06 496.54">
  <defs>
    <style>
      .cls-1 {
        fill: #fff;
        stroke-width: 0px;
      }
    </style>
  </defs>
  <g id="_ëîé_1" data-name="‘ëîé_1">
    <g>
      <path class="cls-1" d="M189.03,113.64c4.43,0,8.04-3.61,8.04-8.04V8.04c0-4.43-3.6-8.04-8.04-8.04s-8.04,3.61-8.04,8.04v97.57c0,4.43,3.6,8.04,8.04,8.04Z"/>
      <path class="cls-1" d="M103.81,126.13c4.43,0,8.04-3.61,8.04-8.04V20.53c0-4.43-3.6-8.04-8.04-8.04s-8.04,3.61-8.04,8.04v97.57c0,4.43,3.6,8.04,8.04,8.04Z"/>
      <path class="cls-1" d="M274.25,202.6c4.43,0,8.04-3.61,8.04-8.04v-97.57c0-4.43-3.6-8.04-8.04-8.04s-8.04,3.61-8.04,8.04v97.57c0,4.43,3.6,8.04,8.04,8.04Z"/>
      <path class="cls-1" d="M48.27,108.34c4.43,0,8.04-3.61,8.04-8.04v-26.75c0-4.43-3.6-8.04-8.04-8.04s-8.04,3.61-8.04,8.04v26.75c0,4.43,3.6,8.04,8.04,8.04Z"/>
      <path class="cls-1" d="M274.25,67.61c4.43,0,8.04-3.61,8.04-8.04v-18.54c0-4.43-3.6-8.04-8.04-8.04s-8.04,3.61-8.04,8.04v18.54c0,4.43,3.6,8.04,8.04,8.04Z"/>
      <path class="cls-1" d="M189.03,180.8c4.43,0,8.04-3.61,8.04-8.04v-31.58c0-4.43-3.6-8.04-8.04-8.04s-8.04,3.61-8.04,8.04v31.58c0,4.43,3.6,8.04,8.04,8.04Z"/>
      <path class="cls-1" d="M189.04,356.08c-15.12,0-27.42-9.09-27.42-20.27,0-4.43-3.6-8.04-8.04-8.04s-8.04,3.61-8.04,8.04c0,17.74,15.3,32.55,35.45,35.71v7.62c0,4.43,3.6,8.04,8.04,8.04s8.04-3.61,8.04-8.04v-7.62c20.15-3.16,35.45-17.97,35.45-35.71,0-20.04-19.51-36.35-43.49-36.35-15.12,0-27.42-9.09-27.42-20.27s12.3-20.27,27.42-20.27,27.42,9.09,27.42,20.27c0,4.43,3.6,8.04,8.04,8.04s8.04-3.61,8.04-8.04c0-17.75-15.3-32.55-35.45-35.71v-7.62c0-4.43-3.6-8.04-8.04-8.04s-8.04,3.61-8.04,8.04v7.62c-20.15,3.16-35.45,17.97-35.45,35.71,0,20.04,19.51,36.35,43.49,36.35,15.12,0,27.42,9.1,27.42,20.28s-12.3,20.27-27.42,20.27Z"/>
      <path class="cls-1" d="M189.03,457.66c82.82,0,150.19-67.36,150.19-150.15,0-4.43-3.6-8.04-8.04-8.04s-8.04,3.61-8.04,8.04c0,73.93-60.17,134.08-134.12,134.08s-134.08-60.15-134.08-134.08c0-42.59,19.57-81.71,53.69-107.34,2.01-1.51,3.21-3.91,3.21-6.42v-34.64c0-4.43-3.6-8.04-8.04-8.04s-8.04,3.61-8.04,8.04v30.69c-36.18,28.68-56.9,71.49-56.9,117.71,0,82.79,67.36,150.15,150.15,150.15Z"/>
      <path class="cls-1" d="M337.83,190.93v-116.91c0-4.43-3.6-8.04-8.04-8.04s-8.04,3.61-8.04,8.04v119.72c0,1.84.64,3.64,1.79,5.06,24.79,30.58,38.44,69.18,38.44,108.7,0,95.37-77.59,172.96-172.96,172.96S16.07,402.88,16.07,307.51c0-39.52,13.65-78.13,38.44-108.7,1.16-1.42,1.8-3.22,1.8-5.06v-57.86c0-4.43-3.6-8.04-8.04-8.04s-8.04,3.61-8.04,8.04v55.05C14.28,223.98,0,265.33,0,307.51c0,104.23,84.8,189.03,189.03,189.03s189.03-84.8,189.03-189.03c0-42.17-14.28-83.53-40.23-116.58Z"/>
    </g>
  </g>
</svg>