<?xml version="1.0" encoding="UTF-8"?>
<svg id="Layer_2" data-name="Layer 2" xmlns="http://www.w3.org/2000/svg" viewBox="0 0 569.4 392.13">
  <defs>
    <style>
      .cls-1 {
        fill: #000;
        stroke-width: 0px;
      }
    </style>
  </defs>
  <g id="_ëîé_1" data-name="‘ëîé_1">
    <path class="cls-1" d="M460.26,392.13c-1.66,0-3-1.34-3-3v-10c0-1.66,1.34-3,3-3h23.25v-6.73h-50.74c-10.56,0-19.15-8.59-19.15-19.15v-75.43c0-10.56,8.59-19.15,19.15-19.15h50.17v-62.41h-190.82v62.41h51.31c10.56,0,19.15,8.59,19.15,19.15v75.43c0,10.56-8.59,19.15-19.15,19.15h-50.74v6.73h23.25c1.66,0,3,1.34,3,3v10c0,1.66-1.34,3-3,3h-62.5c-1.66,0-3-1.34-3-3v-10c0-1.66,1.34-3,3-3h23.25v-6.73h-50.74c-10.56,0-19.15-8.59-19.15-19.15v-75.43c0-10.56,8.59-19.15,19.15-19.15h50.17v-62.41H85.32v62.41h51.3c10.56,0,19.15,8.59,19.15,19.15v75.43c0,10.56-8.59,19.15-19.15,19.15h-50.74v6.73h23.25c1.66,0,3,1.34,3,3v10c0,1.66-1.34,3-3,3h-62.5c-1.66,0-3-1.34-3-3v-10c0-1.66,1.34-3,3-3h23.25v-6.73H19.15c-10.56,0-19.15-8.59-19.15-19.15v-75.43c0-10.56,8.59-19.15,19.15-19.15h50.17v-75.41c0-1.66,1.34-3,3-3h109.5v-40.82h-22.68c-1.66,0-3-1.34-3-3v-10c0-1.66,1.34-3,3-3h23.25v-6.73h-50.74c-10.56,0-19.15-8.59-19.15-19.15V19.15c0-10.56,8.59-19.15,19.15-19.15h117.47c10.56,0,19.15,8.59,19.15,19.15v75.43c0,10.56-8.59,19.15-19.15,19.15h-50.74v6.73h23.25c1.66,0,3,1.34,3,3v10c0,1.66-1.34,3-3,3h-23.82v40.82h190.81v-40.82h-22.68c-1.66,0-3-1.34-3-3v-10c0-1.66,1.34-3,3-3h23.25v-6.73h-50.74c-10.56,0-19.15-8.59-19.15-19.15V19.15c0-10.56,8.59-19.15,19.15-19.15h117.47c10.56,0,19.15,8.59,19.15,19.15v75.43c0,10.56-8.59,19.15-19.15,19.15h-50.74v6.73h23.25c1.66,0,3,1.34,3,3v10c0,1.66-1.34,3-3,3h-23.82v40.82h91.32c1.66,0,3,1.34,3,3v75.41h51.3c10.56,0,19.15,8.59,19.15,19.15v75.43c0,10.56-8.59,19.15-19.15,19.15h-50.74v6.73h23.25c1.66,0,3,1.34,3,3v10c0,1.66-1.34,3-3,3h-62.5ZM432.78,271.68c-1.74,0-3.15,1.41-3.15,3.15v75.43c0,1.74,1.41,3.15,3.15,3.15h117.47c1.74,0,3.15-1.41,3.15-3.15v-75.43c0-1.74-1.41-3.15-3.15-3.15h-117.47ZM225.96,271.68c-1.74,0-3.15,1.41-3.15,3.15v75.43c0,1.74,1.41,3.15,3.15,3.15h117.47c1.74,0,3.15-1.41,3.15-3.15v-75.43c0-1.74-1.41-3.15-3.15-3.15h-117.47ZM19.15,271.68c-1.74,0-3.15,1.41-3.15,3.15v75.43c0,1.74,1.41,3.15,3.15,3.15h117.47c1.74,0,3.15-1.41,3.15-3.15v-75.43c0-1.74-1.41-3.15-3.15-3.15H19.15ZM338.46,16c-1.74,0-3.15,1.41-3.15,3.15v75.43c0,1.74,1.41,3.15,3.15,3.15h117.47c1.74,0,3.15-1.41,3.15-3.15V19.15c0-1.74-1.41-3.15-3.15-3.15h-117.47ZM131.65,16c-1.74,0-3.15,1.41-3.15,3.15v75.43c0,1.74,1.41,3.15,3.15,3.15h117.47c1.74,0,3.15-1.41,3.15-3.15V19.15c0-1.74-1.41-3.15-3.15-3.15h-117.47Z"/>
  </g>
</svg>