<?xml version="1.0" encoding="UTF-8"?>
<svg id="Layer_2" data-name="Layer 2" xmlns="http://www.w3.org/2000/svg" viewBox="0 0 559.6 341.06">
  <defs>
    <style>
      .cls-1 {
        fill: #000;
        stroke-width: 0px;
      }
    </style>
  </defs>
  <g id="_ëîé_1" data-name="‘ëîé_1">
    <g>
      <path class="cls-1" d="M513.88,0h-243.39c-12.63,0-24.6,5.2-33.23,14.34l-1.53-.87c-2.21-1.25-4.73-1.91-7.27-1.91-5.34,0-10.29,2.88-12.93,7.51l-8.59,15.15c-9.23-2.54-18.71-4.14-28.22-4.75l-3.16-17.1c-1.28-7.04-7.41-12.16-14.59-12.16-.89,0-1.79.08-2.68.24l-39.07,7.21c-8.03,1.49-13.36,9.23-11.87,17.25l3.16,17.12c-8.67,3.97-16.96,8.84-24.67,14.5l-13.42-11.08c-2.65-2.2-6-3.41-9.42-3.41-.48,0-.96.02-1.44.07-3.95.38-7.5,2.27-10.01,5.32l-25.28,30.62c-2.53,3.05-3.72,6.91-3.34,10.86.38,3.95,2.27,7.5,5.32,10l13.44,11.1c-4.08,8.57-7.3,17.63-9.6,26.96l-17.4.13c-3.96.03-7.68,1.6-10.46,4.42C1.47,144.36-.04,148.09,0,152.04l.29,39.73c.08,8.1,6.73,14.69,14.83,14.69,0,0,17.55-.13,17.55-.13,2.42,9.28,5.77,18.28,9.96,26.79l-13.28,11.31c-6.18,5.3-6.92,14.67-1.64,20.88l25.77,30.22c2.57,3.02,6.15,4.86,10.1,5.17.4.03.81.05,1.21.05,3.5,0,6.91-1.26,9.58-3.54l13.29-11.33c7.74,5.5,16.09,10.24,24.86,14.12l-2.89,17.2c-1.34,8.04,4.1,15.7,12.16,17.07l39.15,6.58c.83.14,1.68.21,2.51.21,3.07,0,6.02-.95,8.54-2.74,3.24-2.3,5.38-5.72,6.03-9.63l2.89-17.19c4.77-.39,9.54-1.03,14.18-1.89,4.76-.88,9.45-1.98,13.93-3.29l8.84,15.04c2.65,4.5,7.56,7.29,12.8,7.29,2.62,0,5.21-.7,7.48-2.03l3.48-2.05c8.16,6.64,18.33,10.28,28.86,10.28h243.39c25.21,0,45.73-20.51,45.73-45.73V45.73c0-25.21-20.51-45.73-45.73-45.73ZM222.36,297.42c-2.65-4.51-7.54-7.31-12.77-7.31-1.43,0-2.87.21-4.26.62-4.2,1.26-8.62,2.32-13.14,3.15-4.38.82-8.88,1.4-13.38,1.74-6.82.52-12.37,5.58-13.5,12.3l-2.85,16.95-36.84-6.19,2.85-16.96c1.13-6.74-2.46-13.33-8.74-16.05-8.29-3.6-16.18-8.08-23.43-13.3-2.55-1.84-5.56-2.81-8.69-2.81-3.5,0-6.91,1.25-9.61,3.53l-13.09,11.16-24.25-28.44,13.09-11.15c5.19-4.44,6.67-11.81,3.6-17.92-4-7.98-7.15-16.48-9.39-25.25-1.67-6.59-7.57-11.19-14.35-11.19,0,0-17.32.13-17.32.13l-.28-37.35,17.16-.13c6.83-.06,12.7-4.74,14.28-11.4,2.11-8.81,5.16-17.36,9.06-25.44,2.96-6.17,1.36-13.51-3.9-17.86l-13.25-10.94,23.78-28.8,13.23,10.93c2.65,2.19,5.99,3.39,9.42,3.39,3.21,0,6.28-1.02,8.88-2.95,7.22-5.38,15.03-9.97,23.21-13.65,6.28-2.8,9.79-9.47,8.54-16.2l-3.11-16.89,36.73-6.77,3.12,16.88c1.24,6.74,6.89,11.71,13.73,12.1,8.95.52,17.89,2.02,26.58,4.48,1.32.37,2.68.56,4.05.56,5.33,0,10.26-2.88,12.88-7.5l6.85-12.09c-.19.54-.37,1.09-.53,1.64l-.09.3c-.2.68-.38,1.36-.55,2.06l-.11.47c-.18.75-.33,1.5-.47,2.26l-.08.47c-.12.7-.22,1.39-.3,2.08l-.05.36c-.09.77-.16,1.55-.2,2.33l-.03.54c-.04.8-.07,1.6-.07,2.4v57c-15.56-12.87-35.52-20.13-55.75-20.13-5.19,0-10.41.48-15.5,1.41-22.79,4.2-42.58,17.02-55.72,36.1-13.15,19.09-18.07,42.15-13.87,64.94,4.2,22.79,17.02,42.58,36.1,55.72,14.56,10.03,31.52,15.33,49.03,15.33,5.3,0,10.65-.49,15.91-1.46,14.76-2.72,28.39-9.12,39.79-18.64v53.12c0,.66.02,1.32.05,1.96l.03.62c.02.46.06.91.09,1.36.02.24.04.47.07.7.04.44.1.88.15,1.31l.09.65c.08.54.17,1.08.28,1.7l.04.23c.12.63.25,1.26.4,1.9l.14.55c.11.45.23.89.35,1.33.06.23.13.46.19.67.12.42.25.83.39,1.25l.21.64c.16.46.33.93.51,1.4l.16.43c.23.6.48,1.18.73,1.76l.22.49c.2.43.4.86.61,1.29l.31.61c.18.34.36.68.54,1.02l-7.97-13.57ZM224.76,125.45v87.75c-10.63,13.48-25.75,22.59-42.69,25.71-4.3.79-8.67,1.19-12.99,1.19-14.28,0-28.1-4.32-39.98-12.5-15.56-10.72-26.02-26.86-29.44-45.44-3.43-18.59.59-37.4,11.31-52.97,10.72-15.57,26.86-26.02,45.44-29.44,4.15-.76,8.4-1.15,12.63-1.15,21.61,0,42.36,10.02,55.71,26.86ZM543.6,289.12c0,16.39-13.34,29.73-29.73,29.73h-243.39c-8.29,0-16.26-3.5-21.88-9.61-5.06-5.5-7.85-12.64-7.85-20.11v-27.95h302.85v27.95ZM543.6,245.17H240.76v-66.57h302.85v66.57ZM543.6,162.6H240.76v-69.11h302.85v69.11ZM543.6,77.49H240.76v-31.76c0-.74.03-1.49.08-2.22.38-5.14,2.11-10.12,4.99-14.39,5.55-8.21,14.77-13.12,24.66-13.12h243.39c16.39,0,29.73,13.34,29.73,29.73v31.76Z"/>
      <path class="cls-1" d="M504.77,31.76h-48.61c-7.12,0-12.91,5.79-12.91,12.91v9.23c0,7.12,5.79,12.91,12.91,12.91h48.61c7.12,0,12.91-5.79,12.91-12.91v-9.23c0-7.12-5.79-12.91-12.91-12.91ZM501.68,50.81h-42.43v-3.05h42.43v3.05Z"/>
      <path class="cls-1" d="M456.16,146.84h48.61c7.12,0,12.91-5.79,12.91-12.91v-9.23c0-7.12-5.79-12.91-12.91-12.91h-48.61c-7.12,0-12.91,5.79-12.91,12.91v9.23c0,7.12,5.79,12.91,12.91,12.91ZM459.25,127.79h42.43v3.05h-42.43v-3.05Z"/>
      <path class="cls-1" d="M456.16,229.41h48.61c7.12,0,12.91-5.79,12.91-12.91v-9.23c0-7.12-5.79-12.91-12.91-12.91h-48.61c-7.12,0-12.91,5.79-12.91,12.91v9.23c0,7.12,5.79,12.91,12.91,12.91ZM459.25,210.36h42.43v3.05h-42.43v-3.05Z"/>
      <path class="cls-1" d="M456.16,306.9h48.61c7.12,0,12.91-5.79,12.91-12.91v-9.23c0-7.12-5.79-12.91-12.91-12.91h-48.61c-7.12,0-12.91,5.79-12.91,12.91v9.23c0,7.12,5.79,12.91,12.91,12.91ZM459.25,287.85h42.43v3.05h-42.43v-3.05Z"/>
      <path class="cls-1" d="M349.62,40.65h-74.95c-4.41,0-8,3.59-8,8s3.59,8,8,8h74.95c4.41,0,8-3.59,8-8s-3.59-8-8-8Z"/>
      <path class="cls-1" d="M274.68,136.68h74.95c4.41,0,8-3.59,8-8s-3.59-8-8-8h-74.95c-4.41,0-8,3.59-8,8s3.59,8,8,8Z"/>
      <path class="cls-1" d="M274.68,219.25h74.95c4.41,0,8-3.59,8-8s-3.59-8-8-8h-74.95c-4.41,0-8,3.59-8,8s3.59,8,8,8Z"/>
      <path class="cls-1" d="M274.68,296.74h74.95c4.41,0,8-3.59,8-8s-3.59-8-8-8h-74.95c-4.41,0-8,3.59-8,8s3.59,8,8,8Z"/>
    </g>
  </g>
</svg>