<?xml version="1.0" encoding="UTF-8"?>
<svg id="Layer_2" data-name="Layer 2" xmlns="http://www.w3.org/2000/svg" viewBox="0 0 428.65 465.3">
  <defs>
    <style>
      .cls-1 {
        fill: #000;
        stroke-width: 0px;
      }
    </style>
  </defs>
  <g id="_ëîé_1" data-name="‘ëîé_1">
    <g>
      <path class="cls-1" d="M99.31,16.48h277.21v235.19c0,4.54,3.7,8.24,8.24,8.24s8.24-3.7,8.24-8.24V8.24c0-4.54-3.7-8.24-8.24-8.24H99.31c-4.54,0-8.24,3.7-8.24,8.24s3.7,8.24,8.24,8.24Z"/>
      <path class="cls-1" d="M208,432.56H16.48V144.68h82.82c4.54,0,8.24-3.7,8.24-8.24V53.62h229.19v219.67c0,4.54,3.7,8.24,8.24,8.24s8.24-3.7,8.24-8.24V45.38c0-4.54-3.7-8.24-8.24-8.24H99.64c-.11,0-.23-.02-.34-.02-2.2,0-4.27.86-5.83,2.42L2.4,130.61c-.2.2-.36.41-.53.62,0,0,0,0,0,0-.17.21-.33.42-.48.65,0,0,0,0,0,.01-.28.43-.52.88-.72,1.34-.01.03-.03.05-.04.08-.1.24-.18.47-.26.72,0,.02-.01.04-.02.06-.15.49-.25.99-.3,1.5,0,.01,0,.03,0,.04-.02.25-.04.5-.04.76,0,.02,0,.03,0,.05v304.35c0,4.54,3.7,8.24,8.24,8.24h199.75c4.54,0,8.24-3.7,8.24-8.24s-3.7-8.24-8.24-8.24ZM28.15,128.2l62.91-62.91v62.91H28.15Z"/>
      <path class="cls-1" d="M218.59,196.82c4.54,0,8.24-3.7,8.24-8.24s-3.7-8.24-8.24-8.24h-83.97c-4.54,0-8.24,3.7-8.24,8.24s3.7,8.24,8.24,8.24h83.97Z"/>
      <path class="cls-1" d="M54.79,254.87c0,4.54,3.7,8.24,8.24,8.24h227.15c4.54,0,8.24-3.7,8.24-8.24s-3.7-8.24-8.24-8.24H63.03c-4.54,0-8.24,3.7-8.24,8.24Z"/>
      <path class="cls-1" d="M420.83,299.06l-13.05-13.05c-5.04-5.04-11.75-7.81-18.89-7.81s-13.85,2.78-18.89,7.81l-88.69,88.69-42.67-42.67c-5.05-5.05-11.75-7.83-18.89-7.83s-13.84,2.78-18.89,7.83l-13.05,13.05c-5.05,5.05-7.83,11.75-7.83,18.89s2.78,13.85,7.83,18.89l74.61,74.61c5.05,5.05,11.75,7.83,18.89,7.83s13.85-2.78,18.89-7.83l120.63-120.63c5.04-5.04,7.81-11.75,7.81-18.89s-2.78-13.85-7.81-18.89ZM409.18,325.19l-120.63,120.63c-1.83,1.83-4.46,2.87-7.24,2.87s-5.41-1.05-7.24-2.87l-74.61-74.61c-1.93-1.93-3-4.5-3-7.24s1.06-5.3,3-7.24l13.05-13.05c1.93-1.93,4.5-2.99,7.24-2.99s5.31,1.06,7.24,2.99l48.5,48.5c1.56,1.56,3.63,2.41,5.83,2.41s4.27-.86,5.83-2.41l94.52-94.52c1.93-1.93,4.5-2.99,7.24-2.99s5.31,1.06,7.24,2.99l13.05,13.05c3.99,3.99,3.99,10.49,0,14.48Z"/>
    </g>
  </g>
</svg>