<?xml version="1.0" encoding="UTF-8"?>
<svg id="Layer_2" data-name="Layer 2" xmlns="http://www.w3.org/2000/svg" viewBox="0 0 395.51 411.06">
  <defs>
    <style>
      .cls-1 {
        fill: #000;
        stroke-width: 0px;
      }
    </style>
  </defs>
  <g id="_ëîé_1" data-name="‘ëîé_1">
    <g>
      <path class="cls-1" d="M280.05,341.87c-1.25-2.14-3.57-3.46-6.04-3.46-1.23,0-2.44.33-3.5.94-22.02,12.73-47.17,19.46-72.75,19.46-48.88,0-95.36-25.3-122.02-66.24l5.81-3.7c2.34-1.49,3.58-4.24,3.15-6.98s-2.44-4.98-5.13-5.69l-44.26-11.63c-.58-.15-1.17-.23-1.77-.23-2.96,0-5.62,1.88-6.6,4.67l-15.37,43.62c-.92,2.62-.21,5.53,1.82,7.43,1.3,1.22,3,1.89,4.79,1.89.95,0,1.87-.19,2.74-.56l8.86-3.77c16.87,27.13,40.26,49.98,67.78,66.2,30.25,17.82,64.9,27.24,100.21,27.24s69.12-9.2,99.1-26.59c1.6-.93,2.79-2.49,3.25-4.27.47-1.79.21-3.73-.73-5.32l-19.33-33.01ZM197.76,397.06c-65.34,0-126.3-35.17-159.07-91.78-1.25-2.15-3.57-3.49-6.06-3.49-.89,0-1.75.17-2.58.5l7.94-22.54,22.89,6.01c-1.95,2.21-2.34,5.48-.77,8.16,13.82,23.57,33.6,43.33,57.19,57.14,24.31,14.23,52.13,21.75,80.45,21.75,25.63,0,51.03-6.21,73.65-17.99l12.27,20.96c-26.32,13.94-55.96,21.29-85.92,21.29Z"/>
      <path class="cls-1" d="M379.76,312.46l-7.69-5.79c15.06-28.17,23.16-59.86,23.44-91.8.31-35.11-8.86-69.83-26.51-100.41-17.43-30.19-42.52-55.26-72.58-72.53-1.06-.61-2.26-.93-3.49-.93-.62,0-1.24.08-1.84.25-1.78.49-3.33,1.69-4.24,3.29l-18.93,33.25c-1.9,3.33-.74,7.61,2.59,9.53,22.04,12.7,40.44,31.12,53.23,53.27,24.44,42.33,25.76,95.24,3.65,138.79l-6.11-3.18c-.99-.52-2.11-.79-3.23-.79-1.59,0-3.15.55-4.39,1.55-2.17,1.75-3.09,4.61-2.36,7.29l12.06,44.14c.83,3.04,3.6,5.15,6.75,5.15.43,0,.86-.04,1.29-.12l45.45-8.5c2.73-.51,4.89-2.59,5.52-5.29.63-2.7-.39-5.52-2.61-7.19ZM335.16,318.49l-6.24-22.84c.45.09.9.13,1.36.13,2.51,0,4.85-1.36,6.09-3.54,13.5-23.76,20.73-50.77,20.89-78.1.17-28.17-7.23-56.02-21.39-80.55-12.81-22.19-30.89-41.08-52.41-54.79l12.01-21.11c25.23,15.83,46.42,37.82,61.4,63.77,32.67,56.59,32.69,126.96.05,183.65-1.73,3.01-.99,6.84,1.72,8.99l-23.49,4.39Z"/>
      <path class="cls-1" d="M52.26,213.33c-.02-25.43,6.73-50.58,19.51-72.73,24.44-42.33,69.59-69.93,118.37-72.56l.3,6.88c.12,2.78,1.88,5.22,4.47,6.22.81.31,1.66.47,2.53.47,1.85,0,3.67-.76,4.97-2.07l32.2-32.51c2.54-2.57,2.69-6.73.34-9.48L204.86,2.44c-1.33-1.55-3.27-2.44-5.31-2.44-.69,0-1.37.1-2.03.3-2.65.8-4.59,3.1-4.92,5.85l-1.16,9.56c-31.93,1.05-63.42,9.88-91.22,25.6-30.56,17.29-56.05,42.59-73.7,73.17C9.09,144.66-.08,178.93,0,213.59c0,1.87.74,3.63,2.07,4.95,1.32,1.31,3.07,2.03,4.93,2.03h.02s38.28-.23,38.28-.23c3.84-.02,6.96-3.17,6.96-7ZM14.12,206.53c1.09-29.76,9.54-59.11,24.52-85.06C71.32,64.89,132.25,29.68,197.66,29.61c3.47,0,6.42-2.57,6.92-5.99l15.55,18.15-16.66,16.82c-.94-2.77-3.56-4.75-6.68-4.75-27.33.19-54.33,7.43-78.08,20.96-24.48,13.94-44.9,34.27-59.06,58.8-12.81,22.19-20.13,47.3-21.24,72.78l-24.29.15Z"/>
      <path class="cls-1" d="M198.52,105.71c-41.88,0-84.28,11.68-84.28,34.02v134.42c0,.14.01.28.02.42.54,22.05,42.65,33.59,84.25,33.59s84.29-11.68,84.29-34.01c0-.03,0-.06,0-.1v-44.56s0-.09,0-.14c0-.03,0-.06,0-.1v-44.56s0-.09,0-.14c0-.03,0-.06,0-.1v-44.72c0-22.33-42.4-34.02-84.28-34.02ZM268.8,229.41c-.1,4.39-9.95,11.1-28.67,15.52-12.26,2.9-26.65,4.43-41.61,4.43s-29.35-1.53-41.59-4.43c-18.83-4.44-28.68-11.2-28.68-15.59,0-.06,0-.12,0-.17v-24.94c6.42,3.83,14.97,7.05,25.47,9.53,13.28,3.14,28.77,4.8,44.81,4.8s31.53-1.66,44.82-4.8c10.49-2.47,19.03-5.69,25.46-9.52v25.18ZM268.8,184.61c-.1,4.39-9.95,11.1-28.67,15.52-12.26,2.9-26.65,4.43-41.61,4.43s-29.35-1.53-41.59-4.43c-18.83-4.44-28.68-11.2-28.68-15.59,0-.06,0-.12,0-.17v-25c15.91,9.49,43.2,14.37,70.28,14.37s54.37-4.89,70.28-14.37v25.24ZM198.52,119.71c43.6,0,70.28,12.96,70.28,20.02s-26.68,20.02-70.28,20.02-70.28-12.96-70.28-20.02,26.68-20.02,70.28-20.02ZM198.52,294.15c-43.59,0-70.27-12.96-70.27-20.01,0-.06,0-.12,0-.17v-24.94c6.42,3.83,14.97,7.05,25.47,9.53,13.28,3.14,28.77,4.8,44.81,4.8s31.53-1.66,44.82-4.8c10.49-2.47,19.03-5.69,25.46-9.52v25.11s0,.02,0,.03c-.07,7.06-26.74,19.98-70.28,19.98Z"/>
    </g>
  </g>
</svg>