<?xml version="1.0" encoding="UTF-8"?>
<svg id="Layer_2" data-name="Layer 2" xmlns="http://www.w3.org/2000/svg" viewBox="0 0 481.46 500.45">
  <defs>
    <style>
      .cls-1 {
        fill: #000;
        stroke-width: 0px;
      }
    </style>
  </defs>
  <g id="_ëîé_1" data-name="‘ëîé_1">
    <g>
      <path class="cls-1" d="M443.9,318.1c-1.06-.47-2.18-.7-3.32-.7-3.23,0-6.16,1.9-7.48,4.85-1.83,4.12.02,8.97,4.14,10.81,17.7,7.89,27.86,16.71,27.86,24.19,0,11.74-24.35,25.8-62.04,35.83-43.26,11.5-100.91,17.84-162.32,17.84-38.16,0-75.96-2.54-109.28-7.35-.4-.06-.81-.09-1.21-.09-4.03,0-7.51,3.02-8.08,7.02-.31,2.16.24,4.32,1.55,6.07,1.31,1.75,3.22,2.89,5.39,3.2,34.11,4.92,72.71,7.52,111.63,7.52,62.79,0,121.93-6.53,166.53-18.39,20.31-5.4,42.96-13.42,57.83-24.67v46.18c0,9.34-16.3,23.66-62.04,35.82-43.25,11.51-100.9,17.84-162.32,17.84s-119.07-6.34-162.33-17.84c-45.74-12.17-62.04-26.48-62.04-35.82v-73.16c0-7.48,10.15-16.3,27.86-24.19,4.12-1.84,5.97-6.69,4.14-10.81-1.31-2.95-4.25-4.85-7.48-4.85-1.15,0-2.27.24-3.33.71C12.64,329.22,0,342.39,0,357.25v73.16c0,26.38,40.35,42.65,74.2,51.65,44.59,11.86,103.73,18.39,166.53,18.39s121.94-6.53,166.53-18.39c33.85-9,74.2-25.27,74.2-51.65v-73.16c0-14.86-12.64-28.03-37.57-39.15Z"/>
      <path class="cls-1" d="M92.68,396.54c-17.21-3.86-32.07-8.34-44.18-13.32-.99-.4-2.03-.61-3.09-.61-3.33,0-6.31,1.99-7.58,5.07-1.71,4.17.29,8.96,4.46,10.68,12.97,5.33,28.72,10.08,46.83,14.15.59.13,1.19.2,1.78.2,3.8,0,7.16-2.69,7.99-6.4.98-4.4-1.8-8.79-6.2-9.78Z"/>
      <path class="cls-1" d="M99.07,356.39c1.53,1.44,3.52,2.23,5.62,2.23,2.24,0,4.41-.94,5.95-2.57,3.1-3.28,2.95-8.47-.34-11.57-38.41-36.22-59.56-85.27-59.56-138.12,0-104.76,85.23-189.99,189.99-189.99s189.99,85.23,189.99,189.99c0,52.84-21.15,101.9-59.56,138.12-3.28,3.1-3.43,8.29-.34,11.57,1.54,1.63,3.71,2.57,5.95,2.57,2.1,0,4.09-.79,5.62-2.23,41.72-39.34,64.7-92.62,64.7-150.02C447.1,92.58,354.52,0,240.73,0S34.37,92.58,34.37,206.37c0,57.4,22.98,110.68,64.7,150.02Z"/>
      <path class="cls-1" d="M122.79,331.23c1.53,1.43,3.52,2.22,5.61,2.22,2.24,0,4.42-.94,5.96-2.57,3.09-3.28,2.94-8.48-.34-11.57-22.1-20.83-37.47-47.25-44.43-76.4-.89-3.7-4.16-6.29-7.95-6.29-.64,0-1.29.08-1.91.23-4.39,1.05-7.11,5.47-6.06,9.87,7.71,32.26,24.7,61.48,49.13,84.51Z"/>
      <path class="cls-1" d="M92.41,136.95c1.18.62,2.5.96,3.84.96,3.04,0,5.81-1.67,7.23-4.35,6.38-12.02,14.43-23.25,23.91-33.37,1.5-1.59,2.28-3.68,2.21-5.86-.07-2.18-.99-4.21-2.59-5.71-1.52-1.42-3.51-2.21-5.6-2.21-2.25,0-4.43.94-5.97,2.59-10.47,11.17-19.36,23.58-26.43,36.89-2.11,3.99-.59,8.95,3.39,11.07Z"/>
      <path class="cls-1" d="M411.69,223.19c.56-5.4.84-10.91.84-16.82,0-70.27-44.07-134.62-109.66-160.13-.96-.38-1.96-.57-2.98-.57-3.35,0-6.41,2.1-7.62,5.22-.79,2.04-.75,4.26.13,6.27.88,2,2.49,3.54,4.52,4.33,59.35,23.09,99.23,81.31,99.23,144.88,0,5.37-.25,10.31-.75,15.12-.47,4.49,2.8,8.52,7.33,9,.27.03.55.04.82.04,4.2,0,7.7-3.15,8.14-7.34Z"/>
      <path class="cls-1" d="M353.06,333.45c2.1,0,4.1-.8,5.64-2.25,2.87-2.72,5.65-5.54,8.26-8.37,3.06-3.31,2.86-8.5-.46-11.57-1.52-1.4-3.49-2.16-5.55-2.16-2.28,0-4.47.96-6.01,2.63-2.35,2.54-4.88,5.1-7.51,7.6-3.27,3.11-3.41,8.3-.3,11.57,1.54,1.62,3.7,2.55,5.94,2.55Z"/>
      <path class="cls-1" d="M398.72,250.15c-.83-.28-1.7-.42-2.57-.42-3.54,0-6.67,2.26-7.77,5.61-3.33,10.05-7.69,19.73-12.96,28.77-2.27,3.9-.95,8.92,2.95,11.2,1.25.73,2.68,1.11,4.12,1.11,2.9,0,5.62-1.56,7.08-4.06,5.84-10.03,10.67-20.75,14.35-31.87.69-2.08.53-4.3-.46-6.25s-2.67-3.41-4.74-4.09Z"/>
      <path class="cls-1" d="M148.7,79.37c1.65,0,3.24-.49,4.61-1.42,25.87-17.66,56.1-27,87.42-27,7.81,0,15.62.59,23.24,1.75.39.06.78.08,1.17.08,4.03,0,7.52-2.99,8.13-6.95.68-4.46-2.4-8.64-6.87-9.32-8.42-1.28-17.06-1.92-25.67-1.92-34.63,0-68.05,10.32-96.65,29.85-3.73,2.54-4.69,7.65-2.15,11.38,1.53,2.23,4.06,3.57,6.76,3.57Z"/>
      <path class="cls-1" d="M82.89,155.09c-3.67,0-6.91,2.48-7.88,6.02-4.03,14.67-6.07,29.89-6.07,45.25,0,.91,0,1.82.04,2.73.19,4.4,3.78,7.84,8.18,7.84.11,0,.23,0,.35,0,4.51-.19,8.02-4.02,7.83-8.53-.03-.68-.03-1.36-.03-2.04,0-13.9,1.84-27.66,5.48-40.91.58-2.11.3-4.32-.78-6.22-1.08-1.9-2.84-3.26-4.93-3.84-.72-.2-1.45-.3-2.19-.3Z"/>
      <path class="cls-1" d="M142.89,238.92l66.64,66.64c3.56,3.56,8.28,5.51,13.31,5.51s9.75-1.96,13.3-5.51l115.26-115.26c3.55-3.55,5.51-8.28,5.51-13.31s-1.96-9.75-5.51-13.31l-16.66-16.66c-3.55-3.55-8.28-5.5-13.31-5.5s-9.76,1.96-13.3,5.5l-85.29,85.29-36.68-36.67c-3.55-3.55-8.27-5.5-13.31-5.5s-9.76,1.96-13.3,5.5l-16.66,16.66c-3.55,3.55-5.51,8.28-5.51,13.31s1.96,9.75,5.51,13.3ZM154.46,223.88l16.66-16.66c.47-.47,1.07-.72,1.73-.72s1.26.25,1.73.72l42.46,42.46c1.55,1.55,3.6,2.4,5.79,2.4s4.24-.85,5.79-2.4l91.08-91.08c.46-.46,1.08-.71,1.73-.71s1.27.25,1.73.71l16.66,16.66c.47.47.72,1.07.72,1.73s-.25,1.26-.71,1.73l-115.25,115.25c-.46.46-1.08.72-1.74.72s-1.27-.25-1.73-.71l-66.64-66.65c-.46-.46-.71-1.06-.71-1.72s.25-1.26.72-1.73Z"/>
    </g>
  </g>
</svg>