<?xml version="1.0" encoding="UTF-8"?>
<svg id="Layer_2" data-name="Layer 2" xmlns="http://www.w3.org/2000/svg" viewBox="0 0 485.57 503.04">
  <defs>
    <style>
      .cls-1 {
        fill: #fff;
        stroke-width: 0px;
      }
    </style>
  </defs>
  <g id="_ëîé_1" data-name="‘ëîé_1">
    <g>
      <path class="cls-1" d="M483.32,174.77c-5.34-16.43-19.29-28.19-36.39-30.68l-113.12-16.45-50.6-102.53c-7.65-15.5-23.15-25.12-40.44-25.12-17.29,0-32.78,9.63-40.43,25.12l-50.6,102.52-113.13,16.45c-17.1,2.49-31.04,14.25-36.38,30.68-5.34,16.44-.96,34.16,11.42,46.23l47.98,46.78c1.55,1.51,3.61,2.35,5.78,2.35s4.35-.89,5.92-2.5c3.18-3.27,3.12-8.52-.15-11.7l-47.98-46.78c-7.96-7.76-10.67-18.71-7.24-29.27,3.43-10.56,12.04-17.82,23.03-19.42l117.42-17.07c2.7-.39,5.02-2.08,6.23-4.52l52.52-106.42c4.92-9.96,14.49-15.9,25.6-15.9s20.68,5.94,25.6,15.9l52.52,106.42c1.21,2.44,3.54,4.13,6.23,4.52l117.42,17.07c10.99,1.6,19.6,8.86,23.03,19.42,3.44,10.57.74,21.51-7.2,29.27l-84.99,82.81c-1.95,1.9-2.84,4.64-2.38,7.33l20.05,116.95c1.88,10.95-2.37,21.38-11.35,27.91-5,3.63-10.76,5.55-16.66,5.55-4.61,0-9.11-1.14-13.38-3.39l-54.7-28.76c-1.19-.63-2.52-.96-3.85-.96-3.09,0-5.89,1.7-7.33,4.43-2.12,4.04-.57,9.05,3.47,11.17l54.7,28.77c6.5,3.42,13.77,5.23,21.02,5.23,9.51,0,18.65-2.99,26.44-8.64,13.99-10.16,20.86-27.05,17.94-44.1l-19.31-112.67,81.88-79.78c12.37-12.08,16.73-29.8,11.38-46.23Z"/>
      <path class="cls-1" d="M240.12,300.41h-67.19c14.12-21.22,15.66-47.56,15.82-52.9.01-.26.04-.8.04-33.66,0-10.45-4.1-20.3-11.53-27.73-7.41-7.45-17.27-11.56-27.76-11.56-21.67,0-39.29,17.62-39.29,39.28v15.19c-.02,11.03-2.97,21.88-8.54,31.38-2.89,4.94-6.19,10.11-9.81,15.37-9.56,13.92-19.53,23.01-32.35,29.47-15.5,7.81-25.13,23.39-25.13,40.66v111.65c0,25.08,20.41,45.49,45.49,45.49h133.8c21.99,0,38.8-14.46,43.88-37.74l.02-.12c.21-1.2,21.17-120.56,21.74-124.21,1.51-9.69-1.17-19.12-7.54-26.57-7.51-8.76-19.34-14-31.64-14ZM262.96,338.42c-.31,2-7.79,44.75-21.63,123.62-3.36,15.31-13.69,24.44-27.65,24.44H79.88c-15.96,0-28.94-12.98-28.94-28.94v-111.65c0-10.98,6.14-20.9,16.03-25.88,15.44-7.78,27.33-18.54,38.55-34.88,3.84-5.59,7.35-11.1,10.44-16.37,7.05-12.02,10.78-25.76,10.8-39.73v-15.2c.01-12.54,10.21-22.74,22.75-22.74,6.05,0,11.75,2.38,16.04,6.7,4.32,4.31,6.69,10.01,6.69,16.04,0,15.26,0,32.11-.03,33-.12,3.87-1.74,38.29-22.97,55.41-2.72,2.2-3.77,5.89-2.61,9.2,1.17,3.3,4.3,5.52,7.8,5.52h85.68c7.43,0,14.74,3.15,19.08,8.21,2.25,2.62,4.73,7.06,3.76,13.25Z"/>
    </g>
  </g>
</svg>