<?xml version="1.0" encoding="UTF-8"?>
<svg id="Layer_2" data-name="Layer 2" xmlns="http://www.w3.org/2000/svg" viewBox="0 0 466.86 466.8">
  <defs>
    <style>
      .cls-1 {
        fill: #000;
        stroke-width: 0px;
      }
    </style>
  </defs>
  <g id="_ëîé_1" data-name="‘ëîé_1">
    <g>
      <path class="cls-1" d="M120.55,60.84c1.33,0,2.65-.34,3.82-.98,30.44-16.69,64.95-25.51,99.81-25.51,32.17,0,63.02,7.17,91.69,21.31,1.1.55,2.29.82,3.52.82,3.05,0,5.78-1.7,7.14-4.44,1.94-3.93.31-8.71-3.62-10.65-30.88-15.23-64.09-22.96-98.73-22.96-37.52,0-74.68,9.5-107.45,27.47-1.86,1.02-3.22,2.71-3.81,4.75-.6,2.04-.36,4.19.66,6.05,1.4,2.55,4.07,4.13,6.97,4.13Z"/>
      <path class="cls-1" d="M78.04,91.35c2,0,3.91-.74,5.38-2.1,5.68-5.21,11.71-10.17,17.94-14.73,3.53-2.59,4.3-7.58,1.71-11.12-1.49-2.04-3.89-3.25-6.42-3.25-1.7,0-3.32.53-4.7,1.54-6.69,4.9-13.18,10.23-19.3,15.85-1.56,1.44-2.48,3.4-2.57,5.52-.09,2.12.65,4.15,2.09,5.72,1.5,1.63,3.64,2.57,5.86,2.57Z"/>
      <path class="cls-1" d="M263.04,118.37c.77.24,1.57.36,2.38.36,3.49,0,6.54-2.24,7.59-5.58,1.31-4.18-1.03-8.65-5.21-9.96-14.06-4.41-28.74-6.65-43.62-6.65-20.26,0-39.88,4.09-58.32,12.16-1.95.85-3.45,2.41-4.22,4.39-.77,1.98-.73,4.14.12,6.08,1.26,2.9,4.13,4.77,7.29,4.77,1.1,0,2.17-.22,3.18-.67,16.43-7.18,33.91-10.83,51.96-10.83,13.26,0,26.34,1.99,38.86,5.92Z"/>
      <path class="cls-1" d="M224.18,372.76c-71.76,0-130.14-58.38-130.14-130.14,0-35.89,14.35-69.34,40.4-94.19,3.17-3.02,3.29-8.07.27-11.25-1.5-1.56-3.59-2.46-5.75-2.46s-4,.78-5.49,2.2c-29.23,27.88-45.33,65.41-45.33,105.7,0,80.53,65.52,146.04,146.05,146.04s146.08-65.51,146.08-146.04c0-14.8-2.23-29.44-6.61-43.51-1.04-3.34-4.09-5.59-7.59-5.59-.8,0-1.6.12-2.37.36-2.03.63-3.69,2.02-4.68,3.9-.99,1.88-1.18,4.04-.55,6.06,3.91,12.54,5.89,25.58,5.89,38.78,0,71.76-58.4,130.14-130.17,130.14Z"/>
      <path class="cls-1" d="M188.79,204.48c3.21-2.98,3.41-8.02.43-11.24-1.5-1.62-3.63-2.55-5.83-2.55-2.01,0-3.93.75-5.41,2.12-13.82,12.81-21.75,30.96-21.75,49.82,0,37.46,30.48,67.95,67.94,67.95,19.09,0,36.75-7.7,49.74-21.68,1.45-1.56,2.2-3.58,2.12-5.71-.08-2.12-.98-4.09-2.53-5.53-1.47-1.37-3.4-2.12-5.41-2.12-2.21,0-4.33.93-5.83,2.54-9.95,10.71-23.47,16.6-38.09,16.6-28.7,0-52.04-23.35-52.04-52.04,0-14.65,5.92-28.2,16.66-38.15Z"/>
      <path class="cls-1" d="M465.47,72.94c-1.48-2.17-3.94-3.46-6.56-3.46-1.61,0-3.16.48-4.49,1.39-19.55,13.38-38.6,27.4-57.12,42.02-.02.01-.04.02-.06.04-.3.21-.57.44-.83.68-39.08,30.91-75.76,64.45-109.54,100.25-.61.56-1.12,1.21-1.51,1.91-1.75,3.1-1.22,7.02,1.3,9.54l21.25,21.25-73.34-6.26c-3.92-.33-7.66-4.07-7.99-7.99l-6.26-73.35,21.26,21.25c1.5,1.5,3.49,2.32,5.61,2.32,1.56,0,3.07-.45,4.39-1.32.48-.31.92-.68,1.33-1.1,40.53-38.23,78.33-80.3,112.35-125.05,2.65-3.49,1.97-8.49-1.52-11.15-1.4-1.06-3.06-1.62-4.81-1.62-2.51,0-4.82,1.15-6.33,3.14-31.98,42.06-67.38,81.76-105.26,118.03l-17.36-17.35c-3.25-3.25-7.39-5.04-11.67-5.04-2.17,0-4.26.46-6.21,1.37-5.42,2.52-8.46,7.92-7.93,14.1l6.58,77.1c.99,11.61,10.86,21.49,22.48,22.48l77.12,6.58c.45.04.9.06,1.34.06,5.57,0,10.46-3.06,12.75-7.99,2.74-5.9,1.3-12.92-3.67-17.89l-17.35-17.36c30.03-31.36,62.34-60.95,96.58-88.46,4.14,6.49,7.9,13.16,11.21,19.92,14.12,28.66,21.28,59.49,21.28,91.63,0,114.84-93.43,208.27-208.27,208.27S15.9,357.47,15.9,242.62c0-48.49,17.1-95.74,48.15-133.04,2.8-3.37,2.34-8.39-1.03-11.2-1.43-1.19-3.23-1.84-5.08-1.84-2.37,0-4.6,1.04-6.12,2.87C18.41,139.57,0,190.43,0,242.62c0,123.61,100.57,224.18,224.18,224.18s224.18-100.57,224.18-224.18c0-34.6-7.71-67.79-22.91-98.64-3.8-7.74-8.14-15.39-12.94-22.8,16.55-12.88,33.52-25.3,50.9-37.19,3.62-2.48,4.55-7.44,2.07-11.06Z"/>
      <path class="cls-1" d="M371.88,32.87c1.36.97,2.96,1.49,4.63,1.49,2.56,0,4.98-1.24,6.47-3.32,4.39-6.13,8.77-12.39,13.01-18.58,1.2-1.75,1.65-3.87,1.26-5.96-.39-2.09-1.57-3.9-3.33-5.1-1.33-.91-2.88-1.39-4.49-1.39-2.63,0-5.08,1.29-6.56,3.46-4.26,6.23-8.58,12.39-12.82,18.31-2.55,3.56-1.73,8.54,1.83,11.1Z"/>
    </g>
  </g>
</svg>