<?xml version="1.0" encoding="UTF-8"?>
<svg id="Layer_2" data-name="Layer 2" xmlns="http://www.w3.org/2000/svg" viewBox="0 0 505.89 488.45">
  <defs>
    <style>
      .cls-1 {
        fill: #fff;
        stroke-width: 0px;
      }
    </style>
  </defs>
  <g id="_ëîé_1" data-name="‘ëîé_1">
    <g>
      <path class="cls-1" d="M499.89,337.96c-5.96-10.32-15.61-17.71-27.19-20.81-3.84-1.03-7.79-1.55-11.71-1.55-7.77,0-15.46,2.07-22.23,5.98l-100.76,58.17c.7-7.4-.67-14.88-4.07-21.72-4.81-9.66-13.07-16.86-23.27-20.28l-80.04-26.85c-4.12-1.38-8.4-2.08-12.72-2.08-1.07,0-2.17.04-3.27.13-.25.02-.5.05-.74.09l-124.37,21.48,2.89,16.75,123.96-21.41c.49-.03.98-.05,1.47-.05,2.51,0,4.99.41,7.37,1.2l80.04,26.85c12.2,4.09,18.8,17.35,14.71,29.56-1.97,5.88-6.14,10.65-11.75,13.44-3.31,1.64-6.82,2.48-10.44,2.48-2.5,0-4.98-.41-7.38-1.21l-80.04-26.85c-.87-.29-1.78-.44-2.69-.44-3.66,0-6.9,2.33-8.06,5.79-.72,2.15-.56,4.46.45,6.49s2.75,3.55,4.91,4.27l80.04,26.85c4.16,1.39,8.46,2.1,12.8,2.1,6.25,0,12.31-1.44,17.99-4.26,1.21-.6,2.39-1.26,3.52-1.97.2-.1.4-.18.59-.29l127.36-73.53c4.19-2.42,8.95-3.7,13.76-3.7,2.44,0,4.9.33,7.29.97,7.19,1.93,13.18,6.5,16.87,12.89,7.65,13.26,3.09,30.27-10.16,37.92l-145.62,83.99c-3.5,2.02-7.49,3.08-11.54,3.08-1.38,0-2.76-.12-4.12-.37l-218.31-39.74c-.5-.09-1.01-.14-1.51-.14-4.11,0-7.63,2.93-8.37,6.97-.84,4.61,2.23,9.04,6.84,9.88l218.31,39.74c2.35.43,4.76.65,7.16.65,7.02,0,13.95-1.85,20.02-5.36l145.62-83.99c10.34-5.97,17.73-15.62,20.83-27.18,3.1-11.56,1.52-23.62-4.45-33.96Z"/>
      <path class="cls-1" d="M49.58,302.69h-28.67c-11.53,0-20.9,9.38-20.9,20.9v130.91c0,11.53,9.38,20.9,20.9,20.9h28.67c11.52,0,20.9-9.38,20.9-20.9v-130.91c0-11.53-9.38-20.9-20.9-20.9ZM53.48,454.5c0,2.15-1.75,3.91-3.9,3.91h-28.67c-2.15,0-3.91-1.75-3.91-3.91v-130.91c0-2.15,1.75-3.91,3.91-3.91h28.67c2.15,0,3.9,1.75,3.9,3.91v130.91Z"/>
      <path class="cls-1" d="M168.24,130.13c35.88,0,65.07-29.19,65.07-65.06S204.12,0,168.24,0s-65.06,29.19-65.06,65.06,29.19,65.06,65.06,65.06ZM168.24,17c26.51,0,48.07,21.56,48.07,48.07s-21.56,48.07-48.07,48.07-48.07-21.56-48.07-48.07,21.56-48.07,48.07-48.07Z"/>
      <path class="cls-1" d="M371.03,276c55.16,0,100.04-44.88,100.04-100.04s-44.88-100.04-100.04-100.04-100.04,44.88-100.04,100.04,44.88,100.04,100.04,100.04ZM371.03,92.91c45.79,0,83.05,37.25,83.05,83.05s-37.25,83.05-83.05,83.05-83.05-37.26-83.05-83.05,37.25-83.05,83.05-83.05Z"/>
      <path class="cls-1" d="M369.65,184.34c4.91.81,9.27,2.97,12.28,6.09,2.78,2.88,4.01,6.22,3.49,9.4-.49,2.99-2.58,5.66-5.89,7.51-2.85,1.6-6.3,2.44-9.96,2.44-1.34,0-2.7-.11-4.06-.34-3.87-.64-7.41-2.14-10.25-4.33-1.5-1.16-3.3-1.78-5.19-1.78-2.65,0-5.1,1.2-6.73,3.3-1.39,1.8-2,4.02-1.71,6.28.29,2.25,1.43,4.26,3.23,5.65,5.06,3.91,11.25,6.56,17.89,7.66,2.26.37,4.55.56,6.81.56,6.58,0,12.9-1.59,18.28-4.6,7.91-4.43,13-11.38,14.36-19.57,2.67-16.17-10.69-31.88-29.77-35.03-4.91-.81-9.27-2.97-12.28-6.09-2.78-2.88-4.01-6.22-3.49-9.4.95-5.77,7.61-9.95,15.84-9.95,1.35,0,2.71.11,4.07.34,3.87.64,7.41,2.14,10.25,4.33,1.5,1.16,3.3,1.78,5.19,1.78,2.65,0,5.1-1.2,6.73-3.3,1.39-1.79,2-4.02,1.71-6.28-.29-2.25-1.43-4.26-3.23-5.65-5.06-3.91-11.25-6.56-17.89-7.66-2.23-.37-4.49-.55-6.72-.55-16.65,0-30.42,10.16-32.73,24.17-2.67,16.17,10.69,31.88,29.77,35.03Z"/>
    </g>
  </g>
</svg>