<?xml version="1.0" encoding="UTF-8"?>
<svg id="Layer_2" data-name="Layer 2" xmlns="http://www.w3.org/2000/svg" viewBox="0 0 450.89 461.17">
  <defs>
    <style>
      .cls-1 {
        fill: #000;
        stroke-width: 0px;
      }
    </style>
  </defs>
  <g id="_ëîé_1" data-name="‘ëîé_1">
    <g>
      <g>
        <g>
          <path class="cls-1" d="M305.1,461.17c-4.38,0-7.95-3.57-7.95-7.95,0-12.2-5.17-52.01-71.72-52.01s-71.72,39.81-71.72,52.01c0,4.38-3.57,7.95-7.95,7.95s-7.95-3.57-7.95-7.95c0-41.89,33.58-67.91,87.63-67.91s87.63,26.02,87.63,67.91c0,4.38-3.57,7.95-7.95,7.95Z"/>
          <path class="cls-1" d="M225.43,371.43c-24.88,0-45.12-20.24-45.12-45.12s20.24-45.12,45.12-45.12,45.12,20.24,45.12,45.12-20.24,45.12-45.12,45.12ZM225.43,297.1c-16.11,0-29.22,13.11-29.22,29.21s13.11,29.21,29.22,29.21,29.21-13.11,29.21-29.21-13.11-29.21-29.21-29.21Z"/>
        </g>
        <g>
          <path class="cls-1" d="M442.94,420.79c-4.38,0-7.95-3.57-7.95-7.95,0-41.22-47.18-44.42-61.65-44.42-26.36,0-46.7,8.24-55.82,22.61-1.47,2.31-3.98,3.69-6.72,3.69-1.51,0-2.98-.43-4.25-1.24-3.7-2.35-4.8-7.27-2.45-10.97,12.09-19.06,37.33-30,69.25-30,47.83,0,77.55,23.11,77.55,60.32,0,4.38-3.57,7.95-7.95,7.95Z"/>
          <path class="cls-1" d="M373.34,342.39c-22.29,0-40.42-18.13-40.42-40.42s18.13-40.42,40.42-40.42,40.42,18.13,40.42,40.42-18.13,40.42-40.42,40.42ZM373.34,277.46c-13.52,0-24.51,11-24.51,24.51s11,24.51,24.51,24.51,24.51-11,24.51-24.51-11-24.51-24.51-24.51Z"/>
        </g>
        <g>
          <path class="cls-1" d="M7.95,420.79c-4.38,0-7.95-3.57-7.95-7.95,0-37.21,29.72-60.32,77.55-60.32,31.88,0,57.11,10.92,69.21,29.96,2.35,3.7,1.25,8.62-2.45,10.98-1.27.81-2.75,1.24-4.26,1.24-2.74,0-5.25-1.38-6.72-3.69-9.12-14.35-29.46-22.59-55.79-22.59-57.2,0-61.65,34-61.65,44.42,0,4.38-3.57,7.95-7.95,7.95Z"/>
          <path class="cls-1" d="M77.55,342.39c-22.29,0-40.42-18.13-40.42-40.42s18.13-40.42,40.42-40.42,40.42,18.13,40.42,40.42-18.13,40.42-40.42,40.42ZM77.55,277.46c-13.52,0-24.51,11-24.51,24.51s11,24.51,24.51,24.51,24.52-11,24.52-24.51-11-24.51-24.52-24.51Z"/>
        </g>
      </g>
      <g>
        <path class="cls-1" d="M304.33,269.62c-2.1,0-4.15-.85-5.62-2.33l-20.87-20.87-18.24,7.61v5.31c0,4.38-3.57,7.95-7.95,7.95s-7.95-3.57-7.95-7.95v-10.61c0-3.22,1.92-6.1,4.89-7.34l28.05-11.69c.97-.41,2-.62,3.06-.62,2.12,0,4.12.83,5.62,2.33l19.01,19.01,25.82-25.84-18.95-18.95c-2.28-2.27-2.96-5.67-1.73-8.65l11.55-28.08c1.23-2.99,4.12-4.93,7.35-4.93h26.88v-36.54h-26.78c-3.22,0-6.1-1.92-7.34-4.88l-11.73-28.01c-1.25-2.99-.58-6.4,1.71-8.69l19.02-19.01-25.82-25.84-18.94,18.94c-1.5,1.5-3.49,2.33-5.62,2.33-1.04,0-2.05-.2-3.02-.6l-28.12-11.52c-3-1.23-4.94-4.12-4.94-7.36V15.9h-36.5v26.88c0,3.24-1.94,6.13-4.94,7.36l-28.12,11.52c-.97.39-1.98.59-3.01.59-2.13,0-4.13-.83-5.63-2.33l-18.94-18.94-25.82,25.84,19.02,19.02c2.29,2.29,2.96,5.7,1.71,8.69l-11.73,28.01c-1.24,2.97-4.12,4.88-7.34,4.88h-26.78v36.54h26.88c3.23,0,6.12,1.93,7.35,4.92l11.55,28.08c1.23,2.98.55,6.38-1.73,8.65l-18.95,18.95,25.82,25.84,19.01-19.01c1.5-1.5,3.5-2.33,5.62-2.33,1.06,0,2.09.21,3.06.62l28.04,11.69c2.97,1.24,4.89,4.12,4.89,7.34v10.61c0,4.38-3.57,7.95-7.95,7.95s-7.95-3.57-7.95-7.95v-5.31l-18.24-7.61-20.87,20.87c-1.5,1.5-3.5,2.33-5.62,2.33s-4.12-.83-5.62-2.33l-37.06-37.1c-1.5-1.5-2.33-3.5-2.33-5.62s.83-4.12,2.33-5.62l20.82-20.82-7.51-18.26h-29.5c-4.38,0-7.95-3.57-7.95-7.95v-52.44c0-4.38,3.57-7.95,7.95-7.95h29.44l7.62-18.21-20.86-20.86c-1.5-1.5-2.33-3.5-2.33-5.62s.83-4.12,2.33-5.62l37.06-37.09c1.44-1.45,3.49-2.28,5.63-2.28s4.18.83,5.62,2.28l20.82,20.82,18.28-7.49V7.95c0-4.38,3.57-7.95,7.95-7.95h52.41c4.38,0,7.95,3.57,7.95,7.95v29.5l18.28,7.49,20.83-20.83c1.48-1.48,3.53-2.33,5.62-2.33s4.12.83,5.63,2.33l37.06,37.09c1.5,1.5,2.33,3.5,2.33,5.62s-.83,4.12-2.33,5.62l-20.86,20.86,7.62,18.21h29.44c4.38,0,7.95,3.57,7.95,7.95v52.44c0,4.38-3.57,7.95-7.95,7.95h-29.5l-7.51,18.26,20.82,20.82c1.5,1.5,2.33,3.5,2.33,5.62s-.83,4.12-2.33,5.62l-37.06,37.1c-1.5,1.5-3.5,2.33-5.62,2.33Z"/>
        <path class="cls-1" d="M225.42,217.45c-39.56,0-71.75-32.19-71.75-71.75s32.19-71.75,71.75-71.75,71.75,32.19,71.75,71.75-32.19,71.75-71.75,71.75ZM225.42,89.85c-30.79,0-55.84,25.05-55.84,55.85s25.05,55.84,55.84,55.84,55.84-25.05,55.84-55.84-25.05-55.85-55.84-55.85Z"/>
      </g>
    </g>
  </g>
</svg>