<?xml version="1.0" encoding="UTF-8"?>
<svg id="Layer_2" data-name="Layer 2" xmlns="http://www.w3.org/2000/svg" viewBox="0 0 431.98 508.78">
  <defs>
    <style>
      .cls-1 {
        fill: #000;
        stroke-width: 0px;
      }
    </style>
  </defs>
  <g id="_ëîé_1" data-name="‘ëîé_1">
    <g>
      <path class="cls-1" d="M237.57,413.27c-.43,0-.87.04-1.3.11-6.67,1.12-13.47,1.68-20.22,1.68-1.81,0-3.65-.04-5.46-.12-.11,0-.22,0-.33,0-4.27,0-7.76,3.34-7.95,7.6-.19,4.38,3.21,8.1,7.6,8.3,2,.09,4.06.13,6.11.13,7.67,0,15.37-.64,22.88-1.89,2.09-.35,3.93-1.5,5.16-3.22,1.23-1.73,1.72-3.84,1.37-5.93-.65-3.85-3.95-6.64-7.85-6.64Z"/>
      <path class="cls-1" d="M145.59,392.67c-1.35-.96-2.95-1.47-4.6-1.47-2.57,0-5,1.25-6.48,3.35-1.23,1.73-1.71,3.84-1.36,5.93.35,2.09,1.5,3.93,3.24,5.16,13.11,9.31,27.64,16.19,43.17,20.44.68.19,1.39.28,2.1.28,3.57,0,6.72-2.41,7.67-5.86,1.15-4.23-1.35-8.61-5.57-9.77-13.72-3.76-26.56-9.83-38.16-18.06Z"/>
      <path class="cls-1" d="M374.44,440.2c5.21-5.6,10.13-11.49,14.65-17.53,64.14-85.39,55.47-206.82-20.17-282.46-40.76-40.76-95.05-63.21-152.85-63.21s-112.09,22.45-152.85,63.21C22.45,180.98,0,235.27,0,293.07s22.45,112.09,63.22,152.85c37.1,37.09,86.32,59.41,138.62,62.84.17.01.34.02.51.02,4.17,0,7.65-3.26,7.93-7.44.28-4.37-3.04-8.16-7.42-8.45-48.43-3.18-94.04-23.85-128.4-58.21-37.76-37.76-58.56-88.05-58.56-141.61s20.8-103.84,58.56-141.61c37.76-37.76,88.05-58.56,141.61-58.56s103.84,20.8,141.61,58.56c70.07,70.08,78.11,182.57,18.69,261.67-5.65,7.55-11.94,14.8-18.69,21.55-1.5,1.5-2.33,3.5-2.33,5.62s.85,4.14,2.33,5.62l24.58,24.58c.23.23,0,.82-.05.94-.06.15-.63,1.44-1.92,1.45l-91.36.44c-3.88,0-7.44-1.41-10.01-3.98-2.59-2.59-4-6.18-3.99-10.1l.44-91.29c0-1.28,1.28-1.85,1.42-1.9.23-.1.49-.15.68-.15.18,0,.22.04.29.11l24.56,24.56c1.5,1.5,3.5,2.33,5.62,2.33s4.12-.83,5.62-2.33c7.54-7.54,14.16-15.86,19.67-24.73,34-54.67,25.92-124.69-19.67-170.27-26-26-60.63-40.32-97.51-40.32s-71.5,14.32-97.5,40.32c-51.36,51.35-53.99,134.21-5.99,188.63,1.51,1.71,3.69,2.69,5.96,2.69,1.93,0,3.8-.71,5.26-1.99,3.29-2.9,3.6-7.94.7-11.22-42.46-48.13-40.13-121.43,5.31-166.86,23-23,53.64-35.67,86.26-35.67s63.25,12.67,86.26,35.67c40.33,40.33,47.48,102.27,17.4,150.63-3.49,5.62-7.51,11.02-11.96,16.08l-18.76-18.75c-3.08-3.08-7.17-4.78-11.53-4.78-2.28,0-4.55.46-6.74,1.37-6.83,2.81-11.25,9.31-11.27,16.55l-.44,91.27c-.04,8.2,3.03,15.81,8.65,21.42,5.57,5.57,13.12,8.64,21.25,8.64l91.44-.44c7.24-.04,13.74-4.47,16.55-11.3,2.67-6.48,1.36-13.46-3.42-18.23l-19.06-19.06Z"/>
      <path class="cls-1" d="M184.66,59.68h62.81c16.3,0,29.56-13.26,29.56-29.56v-.56c0-16.3-13.26-29.56-29.56-29.56h-62.81c-16.3,0-29.56,13.26-29.56,29.56v.56c0,16.3,13.26,29.56,29.56,29.56ZM171,29.56c0-7.53,6.13-13.66,13.66-13.66h62.81c7.53,0,13.66,6.13,13.66,13.66v.56c0,7.53-6.13,13.66-13.66,13.66h-62.81c-7.53,0-13.66-6.13-13.66-13.66v-.56Z"/>
      <path class="cls-1" d="M48.34,113.12c1.68,0,3.28-.52,4.65-1.5l37.8-27.24c3.56-2.56,4.37-7.54,1.8-11.1-1.49-2.07-3.9-3.31-6.45-3.31-1.68,0-3.28.52-4.65,1.5l-37.8,27.24c-1.72,1.24-2.86,3.08-3.2,5.18-.34,2.1.16,4.2,1.4,5.92,1.49,2.07,3.9,3.31,6.46,3.31Z"/>
      <path class="cls-1" d="M341.35,84.38l37.8,27.24c1.36.98,2.97,1.5,4.65,1.5,2.55,0,4.97-1.24,6.45-3.3,2.56-3.56,1.76-8.54-1.8-11.1l-37.8-27.24c-1.36-.98-2.97-1.5-4.65-1.5-2.55,0-4.96,1.24-6.45,3.3-1.24,1.72-1.74,3.83-1.4,5.92.34,2.1,1.48,3.93,3.2,5.18Z"/>
      <path class="cls-1" d="M216.08,285.12c-16.13,0-29.26-9.76-29.26-21.76s13.12-21.76,29.26-21.76,29.26,9.76,29.26,21.76c0,4.38,3.57,7.95,7.95,7.95s7.95-3.57,7.95-7.95c0-18.5-16.09-33.92-37.21-37.07v-8.41c0-4.38-3.57-7.95-7.95-7.95s-7.95,3.57-7.95,7.95v8.41c-21.12,3.14-37.21,18.56-37.21,37.07,0,20.77,20.26,37.66,45.16,37.66,16.13,0,29.26,9.76,29.26,21.76s-13.12,21.76-29.26,21.76-29.26-9.76-29.26-21.76c0-4.38-3.57-7.95-7.95-7.95s-7.95,3.57-7.95,7.95c0,18.5,16.09,33.92,37.21,37.07v8.41c0,4.38,3.57,7.95,7.95,7.95s7.95-3.57,7.95-7.95v-8.41c21.12-3.14,37.21-18.56,37.21-37.07,0-20.77-20.26-37.67-45.16-37.67Z"/>
    </g>
  </g>
</svg>