<?xml version="1.0" encoding="UTF-8"?>
<svg id="Layer_2" data-name="Layer 2" xmlns="http://www.w3.org/2000/svg" viewBox="0 0 539.99 479.4">
  <defs>
    <style>
      .cls-1 {
        fill: #fff;
        stroke-width: 0px;
      }
    </style>
  </defs>
  <g id="_ëîé_1" data-name="‘ëîé_1">
    <g>
      <path class="cls-1" d="M278.94,328.63c-1.1,0-2.18.21-3.2.63l-125.01,50.8L14.61,239.02c-1.61-1.68-3.79-2.6-6.11-2.6s-4.31.85-5.9,2.38c-3.37,3.25-3.46,8.64-.21,12.01l140.11,145.17c1.59,1.65,3.82,2.6,6.12,2.6,1.1,0,2.18-.21,3.2-.62l130.33-52.96c4.34-1.76,6.44-6.73,4.67-11.07-1.31-3.22-4.4-5.3-7.87-5.3Z"/>
      <path class="cls-1" d="M531.49,225.98c-1.1,0-2.18.21-3.2.63l-111.19,45.18c-4.34,1.76-6.44,6.73-4.67,11.07,1.31,3.22,4.4,5.3,7.88,5.3,1.1,0,2.17-.21,3.19-.63l111.19-45.18c4.34-1.76,6.44-6.73,4.67-11.07-1.31-3.22-4.4-5.3-7.87-5.3Z"/>
      <path class="cls-1" d="M278.94,409.44c-1.1,0-2.18.21-3.2.63l-125.01,50.8L14.61,319.83c-1.61-1.68-3.79-2.6-6.12-2.6s-4.31.85-5.9,2.38c-3.37,3.25-3.46,8.64-.21,12.01l140.11,145.17c1.59,1.65,3.82,2.6,6.11,2.6,1.1,0,2.18-.21,3.2-.62l130.33-52.96c4.34-1.76,6.44-6.73,4.67-11.07-1.31-3.22-4.4-5.3-7.87-5.3Z"/>
      <path class="cls-1" d="M531.49,306.79c-1.1,0-2.18.21-3.2.63l-111.19,45.17c-2.1.85-3.75,2.48-4.63,4.57-.88,2.09-.9,4.4-.04,6.5,1.31,3.22,4.4,5.3,7.88,5.3,1.1,0,2.17-.21,3.19-.63l111.19-45.17c4.34-1.76,6.44-6.73,4.68-11.07-1.31-3.22-4.4-5.3-7.87-5.3Z"/>
      <path class="cls-1" d="M142.49,315.18c1.59,1.65,3.82,2.6,6.12,2.6,1.1,0,2.18-.21,3.2-.62l118.77-48.28c4.34-1.76,6.44-6.73,4.67-11.08-1.31-3.22-4.4-5.3-7.87-5.3-1.1,0-2.18.21-3.2.63l-113.45,46.12L23.34,167.25l111.23-45.2c4.34-1.76,6.44-6.73,4.68-11.07-1.3-3.22-4.39-5.3-7.87-5.3-1.1,0-2.18.21-3.2.63L5.3,156.24c-2.62,1.06-4.53,3.35-5.12,6.12-.58,2.76.24,5.62,2.2,7.66l140.11,145.17Z"/>
      <path class="cls-1" d="M539.8,155.43c.58-2.76-.24-5.63-2.2-7.66L397.49,2.6c-1.59-1.65-3.82-2.6-6.12-2.6-1.1,0-2.18.21-3.2.63l-118.73,48.24c-4.34,1.76-6.44,6.73-4.67,11.07,1.3,3.22,4.4,5.3,7.87,5.3,1.1,0,2.17-.21,3.2-.63l113.41-46.07,127.4,131.99-117.78,47.85c-2.1.85-3.75,2.48-4.63,4.57-.88,2.09-.9,4.4-.04,6.5,1.31,3.22,4.4,5.3,7.88,5.3,1.1,0,2.18-.21,3.19-.63l129.42-52.58c2.62-1.06,4.53-3.35,5.12-6.12Z"/>
      <path class="cls-1" d="M164.68,138.41c-1.31-3.22-4.4-5.3-7.87-5.3-1.1,0-2.18.21-3.21.63l-38.91,15.83c-2.61,1.06-4.52,3.35-5.11,6.12-.58,2.76.24,5.63,2.2,7.65,3.3,3.42,4.59,6.97,3.83,10.55-1.11,5.26-6.32,10.12-14.29,13.35-2.62,1.06-4.53,3.35-5.12,6.12-.58,2.76.24,5.63,2.2,7.66l43.06,44.59c1.59,1.65,3.82,2.6,6.12,2.6,1.1,0,2.17-.21,3.19-.62,5.65-2.29,12.24-3.5,19.05-3.5,12.26,0,23.63,3.9,29.69,10.19,1.59,1.65,3.82,2.6,6.12,2.6,1.11,0,2.19-.21,3.2-.63l36.34-14.79c4.34-1.76,6.43-6.73,4.67-11.08-1.31-3.22-4.4-5.3-7.87-5.3-1.11,0-2.19.21-3.21.63l-31.46,12.81c-9.49-7.33-22.98-11.51-37.33-11.51-6.96,0-13.7.97-20.07,2.89l-31.56-32.68c7.4-5.31,12.29-12.23,13.89-19.79,1.14-5.39.6-10.86-1.57-15.99l29.35-11.94c4.34-1.76,6.43-6.73,4.67-11.08Z"/>
      <path class="cls-1" d="M438.67,130.54c2.62-1.07,4.53-3.35,5.11-6.12.58-2.76-.24-5.62-2.2-7.65l-43.06-44.59c-1.59-1.65-3.82-2.59-6.12-2.59-1.1,0-2.18.21-3.21.63-5.63,2.29-12.2,3.51-19.01,3.51-12.25,0-23.64-3.91-29.73-10.21-1.59-1.65-3.82-2.59-6.11-2.59-1.1,0-2.17.21-3.19.62l-36.31,14.75c-4.34,1.76-6.44,6.73-4.67,11.07,1.31,3.22,4.4,5.3,7.87,5.3,1.1,0,2.18-.21,3.2-.63l31.43-12.77c9.52,7.34,23.01,11.52,37.35,11.52,6.96,0,13.7-.97,20.06-2.89l31.56,32.69c-7.4,5.32-12.28,12.24-13.88,19.79-1.14,5.38-.59,10.84,1.58,15.98l-29.35,11.94c-4.34,1.76-6.43,6.73-4.67,11.08,1.31,3.22,4.4,5.29,7.88,5.29,1.09,0,2.17-.21,3.2-.63l38.92-15.83c2.61-1.06,4.52-3.35,5.11-6.12.58-2.76-.24-5.63-2.2-7.65-3.3-3.43-4.6-6.98-3.85-10.54,1.11-5.24,6.31-10.11,14.28-13.36Z"/>
      <path class="cls-1" d="M225.86,54.75c-1.6-1.73-3.88-2.73-6.24-2.73-1.15,0-2.26.23-3.32.68l-58.46,24.79c-2.54,1.08-4.41,3.33-4.99,6.04-.58,2.7.2,5.53,2.07,7.56l156.97,169.5v164.73c0,2.86,1.42,5.51,3.81,7.09,1.39.92,3.02,1.41,4.69,1.41,1.15,0,2.27-.23,3.32-.67l58.46-24.82c3.15-1.33,5.18-4.4,5.18-7.82v-168.06c0-2.35-.98-4.6-2.69-6.21L225.86,54.75ZM370.36,394.87l-41.47,17.61v-155.22c0-2.15-.8-4.2-2.26-5.77L175.62,88.41l41.83-17.73,152.91,165.12v159.07Z"/>
    </g>
  </g>
</svg>