<?xml version="1.0" encoding="UTF-8"?>
<svg id="Layer_2" data-name="Layer 2" xmlns="http://www.w3.org/2000/svg" viewBox="0 0 507.33 514.14">
  <defs>
    <style>
      .cls-1 {
        fill: #fff;
        stroke-width: 0px;
      }
    </style>
  </defs>
  <g id="_ëîé_1" data-name="‘ëîé_1">
    <g>
      <path class="cls-1" d="M81.27,256.3H8.5c-4.69,0-8.5,3.81-8.5,8.5v105.49c0,4.69,3.81,8.5,8.5,8.5h72.77c4.69,0,8.5-3.81,8.5-8.5v-105.49c0-4.69-3.81-8.5-8.5-8.5ZM72.77,361.79H17v-88.49h55.77v88.49Z"/>
      <path class="cls-1" d="M199.82,150.82h-72.77c-4.69,0-8.5,3.81-8.5,8.5v210.97c0,4.69,3.81,8.5,8.5,8.5h72.77c4.69,0,8.5-3.81,8.5-8.5v-210.97c0-4.69-3.81-8.5-8.5-8.5ZM191.33,361.79h-55.77v-193.97h55.77v193.97Z"/>
      <path class="cls-1" d="M254.1,223.17h55.8v16.85c0,4.69,3.81,8.5,8.5,8.5s8.5-3.81,8.5-8.5v-25.35c0-4.69-3.81-8.5-8.5-8.5h-72.8c-4.69,0-8.5,3.81-8.5,8.5v87c0,4.69,3.81,8.5,8.5,8.5s8.5-3.81,8.5-8.5v-78.5Z"/>
      <path class="cls-1" d="M355.67,118.32v110.03c0,4.69,3.81,8.5,8.5,8.5s8.5-3.81,8.5-8.5v-101.53h55.76v111.21c0,4.69,3.81,8.5,8.5,8.5s8.5-3.81,8.5-8.5v-119.71c0-4.69-3.81-8.5-8.5-8.5h-72.75c-4.69,0-8.5,3.81-8.5,8.5Z"/>
      <path class="cls-1" d="M22.46,182.31c1.96,0,3.88-.69,5.4-1.94l139.88-115.29,103.87,59.53c1.28.73,2.75,1.12,4.23,1.12,1.83,0,3.57-.57,5.03-1.65L428.81,15.35c1.83-1.34,3.03-3.32,3.37-5.56.34-2.24-.21-4.49-1.55-6.32-1.6-2.17-4.16-3.47-6.85-3.47-1.82,0-3.56.57-5.03,1.65l-143.5,105.46-104.16-59.69c-1.29-.74-2.75-1.13-4.23-1.13-1.97,0-3.89.69-5.4,1.94L17.05,167.25c-3.62,2.98-4.13,8.35-1.15,11.97,1.62,1.96,4.01,3.09,6.56,3.09Z"/>
      <path class="cls-1" d="M380.15,259.78c-70.13,0-127.18,57.05-127.18,127.18s57.05,127.18,127.18,127.18,127.18-57.05,127.18-127.18-57.05-127.18-127.18-127.18ZM380.15,497.14c-60.76,0-110.18-49.43-110.18-110.18s49.43-110.18,110.18-110.18,110.18,49.43,110.18,110.18-49.43,110.18-110.18,110.18Z"/>
      <path class="cls-1" d="M380.15,339.67c14.57,0,26.43,8.7,26.43,19.39,0,4.69,3.81,8.5,8.5,8.5s8.5-3.81,8.5-8.5c0-17.63-15.04-32.36-34.93-35.68v-7.01c0-4.69-3.81-8.5-8.5-8.5s-8.5,3.81-8.5,8.5v7.01c-19.89,3.32-34.93,18.06-34.93,35.68,0,20.06,19.48,36.39,43.42,36.39,14.57,0,26.43,8.7,26.43,19.39s-11.86,19.39-26.43,19.39-26.43-8.7-26.43-19.39c0-4.69-3.81-8.5-8.5-8.5s-8.5,3.81-8.5,8.5c0,17.63,15.04,32.36,34.93,35.68v7.01c0,4.69,3.81,8.5,8.5,8.5s8.5-3.81,8.5-8.5v-7.01c19.89-3.32,34.93-18.06,34.93-35.68,0-20.06-19.48-36.39-43.42-36.39-14.57,0-26.43-8.7-26.43-19.39s11.86-19.39,26.43-19.39Z"/>
    </g>
  </g>
</svg>