<?xml version="1.0" encoding="UTF-8"?>
<svg id="Layer_2" data-name="Layer 2" xmlns="http://www.w3.org/2000/svg" viewBox="0 0 541.75 472.2">
  <defs>
    <style>
      .cls-1 {
        fill: #000;
        stroke-width: 0px;
      }
    </style>
  </defs>
  <g id="_ëîé_1" data-name="‘ëîé_1">
    <g>
      <path class="cls-1" d="M540.57,459.77l-105.55-174.34c-5.79-9.57-15.93-15.42-27.13-15.64h-.54c-10.98,0-21.14,5.44-27.16,14.55l-64.44,97.49-20.62-14.91c-5.68-4.1-12.35-6.27-19.29-6.27-9.39,0-18.36,4.06-24.62,11.13l-76.83,86.8c-1.45,1.64-2.18,3.74-2.04,5.92.13,2.18,1.11,4.18,2.74,5.63,1.5,1.33,3.42,2.06,5.43,2.06,2.35,0,4.58-1.01,6.13-2.76l76.83-86.8c3.15-3.56,7.65-5.6,12.36-5.6,3.49,0,6.84,1.09,9.7,3.16l27.54,19.91c1.41,1.02,3.06,1.55,4.79,1.55.5,0,1-.05,1.48-.14,2.18-.4,4.14-1.68,5.36-3.54l69.15-104.61c2.98-4.5,8.13-7.2,13.73-7.21,5.54.11,10.56,3.01,13.44,7.75l105.55,174.34c1.48,2.43,4.16,3.94,7.01,3.94,1.5,0,2.96-.41,4.23-1.18,1.87-1.13,3.19-2.92,3.71-5.05.52-2.12.19-4.32-.95-6.2Z"/>
      <path class="cls-1" d="M441.16,416.95c-1.52-2.3-4.07-3.67-6.83-3.67h-18.24l-13.49-17.4c-1.56-2.02-3.92-3.17-6.47-3.17-1.83,0-3.56.59-5.01,1.72-3.57,2.77-4.22,7.92-1.45,11.48l15.96,20.58c1.56,2.01,3.92,3.17,6.47,3.17h17.85l25.71,38.87c1.52,2.3,4.07,3.67,6.83,3.67,1.61,0,3.17-.47,4.51-1.36,1.82-1.21,3.07-3.05,3.51-5.19.44-2.14.01-4.33-1.19-6.15l-28.13-42.54Z"/>
      <path class="cls-1" d="M135.48,114.45c8.04,2.35,16.44,3.5,25.67,3.5,14.83,0,29.43-2.99,43.6-5.89,13.99-2.87,27.21-5.57,40.25-5.57,8.13,0,15.53,1.1,22.5,3.31v20.28c-7.5,1.75-14.28,6.19-18.91,12.6l-10.14,14.03c-2.64,3.66-1.82,8.79,1.84,11.43,1.41,1.01,3.06,1.55,4.79,1.55,2.62,0,5.1-1.27,6.64-3.39l10.14-14.03c3.1-4.29,7.76-6.66,13.12-6.66h.21c5.34.1,10.11,2.71,13.07,7.15l74.61,111.83c1.52,2.28,4.07,3.64,6.81,3.64,1.62,0,3.19-.48,4.54-1.38,1.82-1.21,3.06-3.06,3.48-5.21.43-2.14,0-4.33-1.22-6.15l-74.61-111.83c-4.31-6.45-10.73-11.06-18.01-13.16V13.91c0-3.33-1.99-6.31-5.08-7.58-10.4-4.26-21.45-6.33-33.77-6.33-14.84,0-29.45,2.99-43.57,5.89-13.99,2.86-27.2,5.57-40.22,5.57-5.92,0-11.35-.55-16.59-1.7-1.27-.28-2.58-.42-3.87-.42-4.14,0-8.22,1.45-11.49,4.08-4.43,3.57-6.97,8.88-6.97,14.56v68.68c0,8.2,5.42,15.52,13.18,17.79ZM138.67,27.99c0-.71.32-1.37.87-1.82.21-.17.65-.46,1.19-.46.13,0,.26.02.42.05,6.34,1.38,12.88,2.05,19.99,2.05,14.86,0,29.47-2.99,43.59-5.88,14-2.87,27.22-5.58,40.26-5.58,8.16,0,15.54,1.08,22.51,3.29v73.13c-7.07-1.77-14.47-2.63-22.48-2.63-14.83,0-29.43,2.99-43.57,5.89-13.99,2.87-27.21,5.57-40.24,5.57-7.64,0-14.55-.93-21.13-2.86-.81-.24-1.4-1.11-1.4-2.07V27.99Z"/>
      <path class="cls-1" d="M240.28,341c1.4,1.02,3.06,1.56,4.8,1.56,1.48,0,2.93-.4,4.2-1.16,2.81-1.68,4.35-4.86,3.92-8.11l-19.44-145.87c-.29-2.22-1.5-4.24-3.32-5.55-1.39-1-3.09-1.55-4.8-1.55-.51,0-1.02.05-1.51.14l-144.63,27.17c-3.22.6-5.76,3.06-6.48,6.26-.71,3.19.54,6.5,3.19,8.42l40.35,29.2-78.92,104.76c-1.32,1.75-1.87,3.9-1.57,6.07.3,2.17,1.43,4.08,3.18,5.4,1.43,1.08,3.13,1.65,4.92,1.65,2.56,0,5-1.22,6.54-3.26l83.94-111.43c1.31-1.75,1.88-3.98,1.55-6.14-.32-2.16-1.53-4.13-3.3-5.41l-31.69-22.92,117.43-22.06,15.78,118.44-31.69-22.92c-1.41-1.02-3.07-1.55-4.8-1.55-.46,0-.92.04-1.37.12-2.16.37-4.11,1.61-5.35,3.4l-113.7,163.73c-2.57,3.71-1.65,8.82,2.06,11.4,1.38.95,2.99,1.46,4.66,1.46,2.68,0,5.2-1.31,6.73-3.52l108.94-156.87,40.35,29.19Z"/>
      <path class="cls-1" d="M27.99,382.67c-1.43-1.07-3.13-1.64-4.92-1.64-2.6,0-4.98,1.19-6.54,3.26l-14.88,19.75c-1.32,1.75-1.87,3.9-1.57,6.07.3,2.17,1.43,4.08,3.18,5.4,1.43,1.08,3.13,1.65,4.92,1.65,2.56,0,5.01-1.22,6.54-3.26l14.88-19.75c1.32-1.75,1.87-3.9,1.57-6.07-.3-2.17-1.43-4.08-3.19-5.4Z"/>
    </g>
  </g>
</svg>